<?xml version="1.0" encoding="UTF-8" standalone="no"?>
<svg
   xmlns="http://www.w3.org/2000/svg"
   width="228"
   height="232"
   viewBox="0 0 228 232"
   fill="none">
  <path
     d="m 204.66,67.05 c -13.651,-14.0781 -34.953,-16.0201 -50.716,-5.8265 -4.484,2.8999 -9.914,3.8723 -15.123,2.7127 -12.33,-2.7449 -25.228,-0.8701 -36.214,5.1076 -7.386,4.0185 -16.381,3.3198 -23.273,-1.4999 -4.575,-3.1992 -9.888,-5.4918 -15.725,-6.5703 -21.6559,-4.0012 -42.7102,10.3988 -46.8731,32.0768 -4.2574,22.1694 10.4016,43.4746 32.4984,47.4216 5.3989,0.964 10.7375,0.801 15.7767,-0.32 8.178,-1.819 16.723,1.223 22,7.745 3.332,4.117 7.349,7.791 12.015,10.844 24.113,15.774 56.416,8.964 72.151,-15.211 0.017,-0.026 0.033,-0.051 0.05,-0.077 2.882,-4.444 7.364,-7.613 12.547,-8.662 7.56,-1.53 14.766,-5.2495 20.608,-11.1595 15.38,-15.56 15.508,-40.8742 0.278,-56.5815 z"
     id="path2"
     style="fill:url(#paint0_linear_2_3153)" />
  <path
     d="m 193.539,146.942 h -7.444 c 8.635,-7.989 13.26,-20.0139 11.29,-32.5231 -3.048,-19.367 -20.774,-32.752 -40.018,-30.5636 -1.504,-20.9691 -18.947,-37.5129 -40.246,-37.5129 -7.161,0 -13.885,1.8728 -19.715,5.1526 0,-1.6272 -1.316,-2.9461 -2.939,-2.9461 H 60.359 c -1.6232,0 -2.9388,1.3189 -2.9388,2.9461 v 11.0799 c 0,1.6272 1.3156,2.9462 2.9388,2.9462 h 22.44 c -3.336,5.3981 -5.443,11.6402 -5.923,18.3346 -6.88,-0.7824 -13.565,0.4265 -19.4558,3.1871 -1.4418,-3.1084 -4.5828,-5.2647 -8.2273,-5.2647 -5.0098,0 -9.0711,4.0718 -9.0711,9.0943 0,2.9713 1.4218,5.6093 3.6199,7.2686 -3.4859,4.6266 -5.9207,10.1544 -6.8844,16.2822 -3.1305,19.9028 10.4242,38.5808 30.2757,41.7188 19.661,3.109 80.319,3.11 99.981,-0.001 0.204,-0.032 0.407,-0.069 0.609,-0.104 v 13.54 c 0,2.163 1.75,3.917 3.907,3.917 h 21.909 c 2.158,0 3.907,-1.754 3.907,-3.917 v -18.719 c 0,-2.163 -1.749,-3.916 -3.907,-3.916 z"
     id="path4"
     style="opacity:0.1;fill:#2626bc" />
  <path
     d="m 180.233,73.867 c 4.619,-1.9488 6.788,-7.2826 4.844,-11.9135 -1.944,-4.6309 -7.264,-6.8051 -11.883,-4.8564 -4.619,1.9488 -6.788,7.2827 -4.844,11.9136 1.943,4.6308 7.264,6.8051 11.883,4.8563 z"
     id="path6"
     style="opacity:0.1;fill:#2626bc" />
  <path
     d="m 197.386,122.6438 c -3.049,-19.367 -20.775,-32.7519 -40.019,-30.5635 -1.503,-20.9691 -18.946,-37.5129 -40.245,-37.5129 -21.299,0 -38.742,16.5438 -40.246,37.5129 -19.2453,-2.1888 -36.9722,11.1989 -40.0187,30.567 -3.1305,19.9027 10.4242,38.5807 30.2757,41.7187 19.661,3.109 80.319,3.111 99.981,-0.001 19.851,-3.14 33.404,-21.819 30.272,-41.7212 z"
     id="path8"
     style="fill:#ff7eb8" />
  <path
     d="m 97.405,59.7208 v 15.7801 c 0,1.6253 -1.312,2.9454 -2.938,2.9454 H 80.305 c 3.556,-7.9311 9.584,-14.4991 17.1,-18.7255 z"
     id="path10"
     style="fill:#01eca5" />
  <path
     d="m 161.302,111.8083 v 53.2777 c -21.608,2.151 -66.749,2.151 -88.36,0 v -53.2777 c 0,-0.6489 0.524,-1.1749 1.172,-1.1749 h 86.016 c 0.648,0 1.172,0.526 1.172,1.1749 z"
     id="path12"
     style="fill:#ffa8cf" />
  <path
     d="M 141.054,146.978 H 130.176 V 82.6119 c 0,-2.1629 -1.75,-3.9166 -3.907,-3.9166 h -18.294 c -2.158,0 -3.907,1.7537 -3.907,3.9166 V 146.977 H 93.19 c -4.482,0 -7.045,5.125 -4.364,8.725 l 23.932,32.146 c 2.177,2.925 6.55,2.925 8.728,0 l 23.932,-32.146 c 2.68,-3.6 0.117,-8.724 -4.364,-8.724 z"
     id="path14"
     style="fill:#97ffd2" />
  <path
     d="m 191.035,182.414 h -21.91 c -2.157,0 -3.906,-1.754 -3.906,-3.916 v -18.719 c 0,-2.163 1.749,-3.917 3.906,-3.917 h 21.91 c 2.157,0 3.906,1.754 3.906,3.917 v 18.719 c 0,2.162 -1.749,3.916 -3.906,3.916 z"
     id="path16"
     style="fill:#ffa8cf;fill-opacity:0.2" />
  <path
     d="m 179.928,175.115 c -0.325,0 -0.655,-0.082 -0.958,-0.253 -0.94,-0.532 -1.271,-1.726 -0.741,-2.668 l 5.31,-9.428 c 0.53,-0.942 1.722,-1.274 2.661,-0.742 0.94,0.531 1.271,1.726 0.74,2.668 l -5.309,9.427 c -0.36,0.638 -1.021,0.996 -1.703,0.996 z"
     id="path18"
     style="fill:#e1f8ee" />
  <path
     d="m 98.669,179.958 c 5.009,0 9.071,-4.072 9.071,-9.094 0,-5.023 -4.062,-9.095 -9.071,-9.095 -5.01,0 -9.071,4.072 -9.071,9.095 0,5.022 4.061,9.094 9.071,9.094 z"
     id="path20"
     style="fill:#dcfdee" />
  <path
     d="m 49.1929,108.1913 c 5.0098,0 9.0711,-4.0717 9.0711,-9.0943 0,-5.0227 -4.0613,-9.0943 -9.0711,-9.0943 -5.0098,0 -9.0711,4.0716 -9.0711,9.0943 0,5.0226 4.0613,9.0943 9.0711,9.0943 z"
     id="path22"
     style="fill:#dcfdee" />
  <path
     d="m 180.232,82.0958 c 4.619,-1.9488 6.787,-7.2827 4.844,-11.9135 -1.944,-4.6309 -7.264,-6.8052 -11.883,-4.8564 -4.62,1.9488 -6.788,7.2827 -4.844,11.9135 1.943,4.6309 7.264,6.8052 11.883,4.8564 z"
     id="path24"
     style="fill:#dcfdee" />
  <path
     d="m 199.316,122.3387 c 1.682,10.6903 -1.191,21.4433 -7.761,29.7893 0.644,0.043 1.101,1.07 -0.853,1.08 -0.019,0.148 -0.03,0.314 -0.03,0.5 v 18.719 c 0,3.24 -2.629,5.875 -5.86,5.875 H 165.77 c -0.01,0 -0.02,0 -0.03,0 -2.998,0.016 -0.319,2.425 0,0 0.019,-0.148 0.03,-0.314 0.03,-0.5 v -2.946 c -0.187,-0.285 -0.218,-0.47 0,-0.47 v -7.847 c -7.625,1.038 -18.806,1.554 -27.124,1.806 -0.02,0.001 -0.04,0.001 -0.06,0.001 -0.046,0 -0.089,-0.01 -0.135,-0.013 l -15.4,20.686 c -1.411,1.895 -3.572,2.981 -5.93,2.981 -2.357,0 -4.519,-1.086 -5.929,-2.981 l -6.588,-8.85 c -1.715,1.104 -3.752,1.747 -5.936,1.747 -6.079,0 -11.024,-4.958 -11.024,-11.053 0,-0.967 0.126,-1.906 0.36,-2.801 -9.172,-0.411 -16.465,-1.016 -21.176,-1.76 -10.1167,-1.601 -19.0062,-7.055 -25.0308,-15.357 -6.025,-8.302 -8.4641,-18.46 -6.8676,-28.602 0.8961,-5.7036 2.9883,-10.9839 6.2141,-15.7057 -1.8434,-1.9761 -2.975,-4.6278 -2.975,-7.5407 0,-6.0941 4.9453,-11.052 11.0242,-11.052 3.7359,0 7.041,1.8743 9.0359,4.7319 5.3382,-2.2028 11.1222,-3.1651 16.8872,-2.8134 0.594,-4.9626 2.074,-9.8137 4.341,-14.259 L 99.36,56.5216 c 5.534,-2.5644 11.624,-3.912 17.761,-3.912 8.962,0 17.523,2.7735 24.758,8.0201 0.874,0.6336 1.07,1.8579 0.438,2.7339 -0.382,0.5291 -0.979,0.8103 -1.584,0.8103 -0.397,0 -0.798,-0.1202 -1.144,-0.3717 -6.564,-4.7602 -14.334,-7.2767 -22.468,-7.2767 -6.187,0 -12.316,1.5093 -17.762,4.3619 v 9.9112 c 0,2.7042 -2.194,4.9043 -4.892,4.9043 H 83.905 c -2.91,5.0222 -4.666,10.7164 -5.082,16.5183 -0.039,0.5318 -0.291,1.0253 -0.701,1.366 -0.409,0.3407 -0.94,0.4997 -1.468,0.439 -5.703,-0.6481 -11.487,0.1512 -16.7861,2.3079 0.2271,0.8831 0.3481,1.8085 0.3481,2.7617 0,6.0944 -4.945,11.0524 -11.0239,11.0524 -1.7664,0 -3.4359,-0.421 -4.9176,-1.1647 -2.8429,4.2037 -4.6902,8.8989 -5.4867,13.9689 -1.4336,9.1096 0.7567,18.2316 6.1676,25.6886 5.4109,7.456 13.3949,12.355 22.4806,13.792 4.853,0.767 12.603,1.384 22.426,1.789 0.471,-0.626 1.007,-1.197 1.597,-1.71 l -4.199,-5.639 c -1.685,-2.263 -1.947,-5.237 -0.684,-7.762 1.262,-2.524 3.797,-4.092 6.613,-4.092 h 8.925 v -22.8045 c 0,-1.0816 0.875,-1.9581 1.953,-1.9581 1.079,0 1.954,0.8765 1.954,1.9581 v 24.7625 c 0,1.082 -0.875,1.958 -1.954,1.958 H 93.189 c -1.349,0 -2.516,0.723 -3.122,1.932 -0.605,1.209 -0.484,2.579 0.324,3.664 l 4.444,5.97 c 1.195,-0.445 2.486,-0.69 3.833,-0.69 6.079,0 11.024,4.958 11.024,11.053 0,2.484 -0.822,4.779 -2.208,6.627 l 6.839,9.186 c 0.666,0.894 1.686,1.407 2.799,1.407 1.113,0 2.133,-0.513 2.799,-1.407 l 23.932,-32.146 c 0.807,-1.084 0.928,-2.454 0.323,-3.664 -0.605,-1.209 -1.772,-1.932 -3.122,-1.932 h -10.878 c -1.079,0 -1.953,-0.876 -1.953,-1.958 V 82.6119 c 0,-1.0801 -0.877,-1.9585 -1.954,-1.9585 h -18.294 c -1.077,0 -1.954,0.8784 -1.954,1.9585 v 28.8165 c 0,1.0817 -0.875,1.9582 -1.953,1.9582 -1.079,0 -1.953,-0.8765 -1.953,-1.9582 V 82.6119 c 0,-3.2395 2.629,-5.8747 5.86,-5.8747 h 18.294 c 3.231,0 5.86,2.6356 5.86,5.8747 V 145.02 h 8.925 c 2.817,0 5.351,1.568 6.613,4.093 1.263,2.524 1,5.498 -0.684,7.761 l -5.555,7.462 c 10.559,-0.373 18.902,-0.972 24.342,-1.75 v -3.502 c 0,-3.24 2.629,-5.875 5.86,-5.875 h 9.605 l 3.578,-1.459 c 0.54,0 1.03,0.221 1.383,0.577 7.505,-7.78 10.955,-18.614 9.261,-29.3774 -2.883,-18.3061 -19.516,-31.0068 -37.87,-28.9222 -0.527,0.0607 -1.059,-0.0983 -1.468,-0.439 -0.409,-0.3407 -0.662,-0.8346 -0.7,-1.3664 -0.561,-7.8395 -3.464,-15.2228 -8.396,-21.3506 -0.677,-0.8412 -0.546,-2.0744 0.293,-2.7535 0.84,-0.679 2.07,-0.5471 2.747,0.2945 5.018,6.2347 8.13,13.6481 9.065,21.5492 19.633,-1.2196 37.081,12.6553 40.188,32.3771 z"
     id="path26"
     style="fill:#2626bc" />
  <path
     d="m 176.656,84.7119 c 6.079,0 11.024,-4.958 11.024,-11.0524 0,-6.0945 -4.945,-11.0524 -11.024,-11.0524 -6.078,0 -11.024,4.9579 -11.024,11.0524 0,6.0944 4.946,11.0524 11.024,11.0524 z m 0,-18.1882 c 3.925,0 7.118,3.2011 7.118,7.1362 0,3.935 -3.193,7.1361 -7.118,7.1361 -3.924,0 -7.117,-3.2011 -7.117,-7.1361 0,-3.9351 3.193,-7.1362 7.117,-7.1362 z"
     id="path28"
     style="fill:#2626bc" />
  <path
     d="m 142.155,137.74 c 1.206,0 2.183,-0.98 2.183,-2.189 0,-1.209 -0.977,-2.189 -2.183,-2.189 -1.206,0 -2.184,0.98 -2.184,2.189 0,1.209 0.978,2.189 2.184,2.189 z"
     id="path30"
     style="fill:#6583fe" />
  <path
     d="m 142.155,131.1174 c 1.206,0 2.183,-0.9802 2.183,-2.1892 0,-1.2091 -0.977,-2.1892 -2.183,-2.1892 -1.206,0 -2.184,0.9801 -2.184,2.1892 0,1.209 0.978,2.1892 2.184,2.1892 z"
     id="path32"
     style="fill:#6583fe" />
  <path
     d="m 142.155,124.4942 c 1.206,0 2.183,-0.9801 2.183,-2.1892 0,-1.209 -0.977,-2.1892 -2.183,-2.1892 -1.206,0 -2.184,0.9802 -2.184,2.1892 0,1.2091 0.978,2.1892 2.184,2.1892 z"
     id="path34"
     style="fill:#6583fe" />
  <path
     d="m 153.999,55.2656 c -0.5,0 -1,-0.1911 -1.381,-0.5737 l -4.295,-4.3059 c -0.763,-0.7645 -0.763,-2.0043 0,-2.7688 l 4.295,-4.3059 c 0.762,-0.7648 1.999,-0.7648 2.762,0 l 4.294,4.3059 c 0.763,0.7645 0.763,2.0043 0,2.7688 l -4.294,4.3059 c -0.381,0.3822 -0.881,0.5737 -1.381,0.5737 z m -1.533,-6.264 1.533,1.5367 1.533,-1.5367 -1.533,-1.5367 z"
     id="path36"
     style="fill:#6583fe" />
  <path
     d="m 38.4589,87.9307 c -0.5,0 -0.9996,-0.1911 -1.3812,-0.5738 l -4.295,-4.3059 c -0.7629,-0.7644 -0.7629,-2.0043 0,-2.7688 l 4.295,-4.3059 c 0.7628,-0.7648 1.9992,-0.7648 2.7621,0 l 4.2953,4.3059 c 0.3664,0.3674 0.5719,0.8651 0.5719,1.3844 0,0.5193 -0.2059,1.0175 -0.5719,1.3844 l -4.2953,4.3059 c -0.3813,0.3827 -0.8813,0.5738 -1.3809,0.5738 z m -1.5328,-6.2641 1.5328,1.5368 1.5328,-1.5368 -1.5328,-1.5367 z"
     id="path38"
     style="fill:#ff7eb8" />
  <path
     d="m 131.141,45.7014 c -1.079,0 -1.954,-0.8764 -1.954,-1.9581 0,-1.2998 -1.054,-2.35758 -2.351,-2.35758 -1.079,0 -1.953,-0.87645 -1.953,-1.95812 0,-1.08166 0.874,-1.95812 1.953,-1.95812 1.296,0 2.351,-1.05738 2.351,-2.35718 0,-1.08167 0.875,-1.95813 1.954,-1.95813 1.078,0 1.953,0.87646 1.953,1.95813 0,1.2994 1.054,2.35718 2.351,2.35718 1.079,0 1.953,0.87646 1.953,1.95812 0,1.08167 -0.874,1.95812 -1.953,1.95812 -1.296,0 -2.351,1.05738 -2.351,2.35758 0,1.0817 -0.875,1.9581 -1.953,1.9581 z"
     id="path40"
     style="fill:#97ffd2" />
  <path
     d="m 146.836,186.231 c -1.079,0 -1.953,-0.876 -1.953,-1.958 0,-1.299 -1.055,-2.357 -2.352,-2.357 -1.079,0 -1.953,-0.876 -1.953,-1.958 0,-1.082 0.874,-1.958 1.953,-1.958 1.297,0 2.352,-1.057 2.352,-2.358 0,-1.081 0.874,-1.958 1.953,-1.958 1.079,0 1.953,0.877 1.953,1.958 0,1.3 1.055,2.358 2.351,2.358 1.079,0 1.953,0.876 1.953,1.958 0,1.082 -0.874,1.958 -1.953,1.958 -1.296,0 -2.351,1.058 -2.351,2.357 0,1.082 -0.874,1.958 -1.953,1.958 z"
     id="path42"
     style="fill:#97ffd2" />
  <path
     d="m 164,151 h 27 v 27 h -27 z"
     id="path44"
     style="fill:#d2deff" />
  <path
     d="m 175.394,172.646 c 3.193,0 5.782,-2.588 5.782,-5.782 0,-3.193 -2.589,-5.781 -5.782,-5.781 -3.193,0 -5.781,2.588 -5.781,5.781 0,3.194 2.588,5.782 5.781,5.782 z"
     id="path46"
     style="fill:#ff7eb8" />
  <path
     d="m 191,178 v -11.54 c -2.016,-0.701 -4.184,-1.083 -6.44,-1.083 -8.363,0 -15.5,5.245 -18.307,12.623 z"
     id="path48"
     style="fill:#01eca5" />
  <path
     d="M 184.391,178 H 164 v -7.805 c 2.118,-1.383 4.646,-2.185 7.362,-2.185 6.239,0 11.49,4.236 13.029,9.99 z"
     id="path50"
     style="fill:#97ffd2" />
  <rect
     x="162.875"
     y="149.98401"
     width="28.9062"
     height="28.988199"
     rx="3.6038301"
     id="rect52"
     style="stroke:#2626bc;stroke-width:3.125" />
  <path
     d="m 46.76,64.4966 v -1e-4 c -0.9756,-1.0458 -0.9757,-2.664 -3e-4,-3.7099 v 0 c 9.0426,-9.697 21.9333,-15.7584 36.2423,-15.7584 14.308,0 27.196,6.0612 36.238,15.7583 0.976,1.046 0.976,2.6642 0,3.71 l 0.752,0.7014 -0.752,-0.7013 c -9.045,9.6968 -21.933,15.755 -36.238,15.755 -14.309,0 -27.1968,-6.0582 -36.242,-15.755 z"
     id="path54"
     style="fill:#d2deff;stroke:#2626bc;stroke-width:2.05646992" />
  <path
     d="m 83,73.5899 c 6.048,0 10.95,-4.9025 10.95,-10.9501 0,-6.0476 -4.902,-10.9501 -10.95,-10.9501 -6.048,0 -10.95,4.9025 -10.95,10.9501 0,6.0476 4.902,10.9501 10.95,10.9501 z"
     id="path56"
     style="fill:#8399fe" />
  <path
     d="m 65.42,59.9388 c -0.239,0 -0.478,-0.0912 -0.661,-0.2735 -0.365,-0.3647 -0.365,-0.956 0,-1.3206 l 3.3,-3.2997 c 0.365,-0.3645 0.956,-0.3645 1.32,0 0.365,0.3648 0.365,0.9561 0,1.3207 l -3.299,3.2996 c -0.182,0.1821 -0.421,0.2735 -0.66,0.2735 z"
     id="path58"
     style="fill:#ffffff" />
  <path
     d="m 60.504,59.9388 c -0.239,0 -0.478,-0.0912 -0.6602,-0.2735 -0.3648,-0.3647 -0.3648,-0.956 0,-1.3206 L 63.143,55.045 c 0.365,-0.3645 0.956,-0.3645 1.321,0 0.365,0.3648 0.365,0.9561 0,1.3207 l -3.3,3.2996 c -0.182,0.1821 -0.421,0.2735 -0.66,0.2735 z"
     id="path60"
     style="fill:#ffffff" />
  <path
     d="m 102.196,70.5083 c -0.239,0 -0.478,-0.0911 -0.66,-0.2734 -0.365,-0.3647 -0.365,-0.9561 0,-1.3206 l 3.3,-3.2997 c 0.364,-0.3646 0.955,-0.3646 1.32,0 0.365,0.3648 0.365,0.9561 0,1.3207 l -3.299,3.2996 c -0.183,0.1823 -0.422,0.2734 -0.661,0.2734 z"
     id="path62"
     style="fill:#ffffff" />
  <path
     d="m 97.281,70.5083 c -0.24,0 -0.478,-0.0911 -0.661,-0.2734 -0.365,-0.3647 -0.365,-0.9561 0,-1.3206 l 3.3,-3.2997 c 0.365,-0.3646 0.956,-0.3646 1.32,0 0.365,0.3648 0.365,0.9561 0,1.3207 l -3.299,3.2996 c -0.183,0.1823 -0.421,0.2734 -0.66,0.2734 z"
     id="path64"
     style="fill:#ffffff" />
  <path
     d="m 83,71.2682 c 4.765,0 8.628,-3.863 8.628,-8.6284 0,-4.7653 -3.863,-8.6283 -8.628,-8.6283 -4.765,0 -8.628,3.863 -8.628,8.6283 0,4.7654 3.863,8.6284 8.628,8.6284 z"
     id="path66"
     style="fill:#9fb0fe" />
  <path
     d="m 82.1,65.6432 c 1.465,0 2.653,-1.1874 2.653,-2.6523 0,-1.4648 -1.188,-2.6523 -2.653,-2.6523 -1.464,0 -2.652,1.1875 -2.652,2.6523 0,1.4649 1.188,2.6523 2.652,2.6523 z"
     id="path68"
     style="fill:#6583fe" />
  <path
     d="m 84.956,63.1986 c 1.098,0 1.989,-0.8905 1.989,-1.9891 0,-1.0985 -0.891,-1.989 -1.989,-1.989 -1.099,0 -1.989,0.8905 -1.989,1.989 0,1.0986 0.89,1.9891 1.989,1.9891 z"
     id="path70"
     style="fill:#d2deff" />
  <defs
     id="defs77">
    <linearGradient
       id="paint0_linear_2_3153"
       x1="78.025703"
       y1="79.532303"
       x2="291.755"
       y2="78.576103"
       gradientUnits="userSpaceOnUse"
       gradientTransform="translate(-40,32)">
      <stop
         offset="0.0485"
         stop-color="#D2DEFF"
         id="stop72" />
      <stop
         offset="0.9993"
         stop-color="#DCFDEE"
         id="stop74" />
    </linearGradient>
  </defs>
</svg>
