<svg width="234" height="234" viewBox="0 0 234 234" fill="none" xmlns="http://www.w3.org/2000/svg">
<g clip-path="url(#clip0)">
<path d="M210.771 12.5005C181.632 -4.86073 143.927 -3.89685 115.31 13.8904C99.2313 23.8838 86.8027 38.2972 72.7088 50.7051C60.3589 61.5774 45.9976 69.3328 33.2428 79.5913C-13.0133 116.795 -8.59978 217.14 56.534 230.469C84.7681 236.247 123.357 238.099 139.951 210.523C155.773 184.23 161.08 157.332 191.996 143.366C202.769 138.499 220.777 138.744 228.076 128.078C237.286 114.619 225.858 100.637 219.761 88.9075C211.905 73.7916 210.257 58.8887 215.786 42.6742C220.492 28.8668 223.806 22.6644 210.771 12.5005Z" fill="url(#paint0_linear)"/>
<path opacity="0.1" d="M86.5312 98.8673C80.4792 95.1973 73.3783 93.0844 65.7834 93.0844H65.7829C58.0865 93.0844 50.8983 95.2558 44.7942 99.0167C39.2097 97.6593 35.0503 92.6192 35.0503 86.6234C35.0503 79.5897 40.7728 73.8672 47.8065 73.8672H82.9627C87.4741 73.8672 91.4429 76.2232 93.7112 79.7675H92.5494C88.7634 79.7675 85.6939 82.8369 85.6939 86.6229C85.6939 90.409 88.7634 93.4784 92.5494 93.4784H93.7116C92.0654 96.0497 89.5252 97.993 86.5312 98.8673ZM141.449 79.7675H140.287C142.556 76.2232 146.525 73.8672 151.036 73.8672H186.192C193.226 73.8672 198.948 79.5897 198.948 86.6234C198.948 92.6192 194.788 97.6593 189.204 99.0167C183.1 95.2558 175.911 93.0844 168.215 93.0844C160.621 93.0844 153.519 95.1978 147.467 98.8673C144.473 97.993 141.933 96.0497 140.287 93.4784H141.449C145.236 93.4784 148.305 90.409 148.305 86.6229C148.304 82.8369 145.236 79.7675 141.449 79.7675Z" fill="#2626BC"/>
<path d="M186.19 102.121H151.034C136.44 102.121 124.566 90.2481 124.566 75.6546C124.566 61.0607 136.44 49.1875 151.034 49.1875H186.19C200.784 49.1875 212.656 61.0607 212.656 75.6546C212.656 90.2481 200.784 102.121 186.19 102.121ZM151.034 62.8984C144 62.8984 138.277 68.6209 138.277 75.6546C138.277 82.6884 144 88.4104 151.034 88.4104H186.19C193.223 88.4104 198.946 82.6879 198.946 75.6546C198.946 68.6209 193.223 62.8984 186.19 62.8984H151.034Z" fill="#02FFB3"/>
<path d="M138.277 75.6523C138.277 81.4795 142.208 86.4109 147.56 87.9236C145.718 88.8468 143.643 89.3633 141.449 89.3633H128.401C125.969 85.3643 124.566 80.6705 124.566 75.6523H138.277Z" fill="#01ECA5"/>
<path d="M140.355 193.41C139.77 193.41 139.186 193.187 138.739 192.741L133.712 187.713C132.819 186.821 132.819 185.374 133.712 184.482L138.739 179.454C139.632 178.562 141.078 178.562 141.971 179.454L146.998 184.482C147.891 185.374 147.891 186.821 146.998 187.713L141.971 192.741C141.525 193.187 140.94 193.41 140.355 193.41ZM138.56 186.097L140.355 187.893L142.151 186.097L140.355 184.302L138.56 186.097Z" fill="#FF7EB8"/>
<path d="M81.2568 34.2773C79.995 34.2773 78.9717 33.2541 78.9717 31.9922C78.9717 30.4799 77.7418 29.25 76.2295 29.25C74.9676 29.25 73.9443 28.2267 73.9443 26.9648C73.9443 25.703 74.9676 24.6797 76.2295 24.6797C77.7418 24.6797 78.9717 23.4498 78.9717 21.9375C78.9717 20.6756 79.995 19.6523 81.2568 19.6523C82.5187 19.6523 83.542 20.6756 83.542 21.9375C83.542 23.4498 84.7719 24.6797 86.2842 24.6797C87.546 24.6797 88.5693 25.703 88.5693 26.9648C88.5693 28.2267 87.546 29.25 86.2842 29.25C84.7719 29.25 83.542 30.4799 83.542 31.9922C83.542 33.2541 82.5187 34.2773 81.2568 34.2773Z" fill="#FF7EB8"/>
<path d="M167.73 207.035C166.469 207.035 165.445 206.012 165.445 204.75C165.445 203.238 164.215 202.008 162.703 202.008C161.441 202.008 160.418 200.985 160.418 199.723C160.418 198.461 161.441 197.438 162.703 197.438C164.215 197.438 165.445 196.208 165.445 194.695C165.445 193.433 166.469 192.41 167.73 192.41C168.992 192.41 170.016 193.433 170.016 194.695C170.016 196.208 171.245 197.438 172.758 197.438C174.02 197.438 175.043 198.461 175.043 199.723C175.043 200.985 174.02 202.008 172.758 202.008C171.245 202.008 170.016 203.238 170.016 204.75C170.016 206.012 168.992 207.035 167.73 207.035Z" fill="#6583FE"/>
<path d="M82.9593 102.121H47.8031C33.2092 102.121 21.3359 90.2481 21.3359 75.6546C21.3359 61.0607 33.2092 49.1875 47.8031 49.1875H82.9593C97.5532 49.1875 109.426 61.0607 109.426 75.6546C109.426 90.2481 97.5527 102.121 82.9593 102.121ZM47.8026 62.8984C40.7689 62.8984 35.0464 68.6209 35.0464 75.6546C35.0464 82.6884 40.7689 88.4104 47.8026 88.4104H82.9588C89.9925 88.4104 95.7146 82.6879 95.7146 75.6546C95.7146 68.6209 89.9921 62.8984 82.9588 62.8984H47.8026Z" fill="#02FFB3"/>
<path d="M109.431 75.6523C109.431 80.6705 108.028 85.3643 105.597 89.3633H92.5485C90.3547 89.3633 88.2798 88.8468 86.438 87.9236C91.7898 86.4109 95.7203 81.4795 95.7203 75.6523H109.431Z" fill="#01ECA5"/>
<path d="M141.45 82.5098H92.5508C88.7647 82.5098 85.6953 79.4403 85.6953 75.6543C85.6953 71.8682 88.7647 68.7988 92.5508 68.7988H141.451C145.237 68.7988 148.306 71.8682 148.306 75.6543C148.306 79.4408 145.237 82.5098 141.45 82.5098Z" fill="#DCFDEE"/>
<path d="M184.049 100.473H148.892C135.304 100.473 124.246 89.4146 124.246 75.8265C124.246 62.2379 135.304 51.1797 148.892 51.1797H184.049C197.637 51.1797 208.695 62.2379 208.695 75.8265C208.695 89.4147 197.637 100.473 184.049 100.473ZM148.892 61.25C140.853 61.25 134.316 67.7875 134.316 75.8265C134.316 83.8656 140.853 90.4026 148.892 90.4026H184.049C192.088 90.4026 198.625 83.8651 198.625 75.8265C198.625 67.7875 192.087 61.25 184.049 61.25H148.892Z" stroke="#2626BC" stroke-width="3.64062"/>
<path d="M80.8187 100.473H45.6624C32.0738 100.473 21.0156 89.4146 21.0156 75.8265C21.0156 62.2379 32.0739 51.1797 45.6624 51.1797H80.8187C94.4072 51.1797 105.465 62.2379 105.465 75.8265C105.465 89.4146 94.4068 100.473 80.8187 100.473ZM45.662 61.25C37.6229 61.25 31.0855 67.7875 31.0855 75.8265C31.0855 83.8656 37.623 90.4026 45.662 90.4026H80.8182C88.8573 90.4026 95.3943 83.8651 95.3943 75.8265C95.3943 67.7875 88.8568 61.25 80.8182 61.25H45.662Z" stroke="#2626BC" stroke-width="3.64062"/>
<path d="M90.4063 80.8613H139.306C142.087 80.8613 144.341 78.6075 144.341 75.8262L90.4063 80.8613ZM90.4063 80.8613C87.6255 80.8613 85.3711 78.6069 85.3711 75.8262M90.4063 80.8613L85.3711 75.8262M85.3711 75.8262C85.3711 73.0455 87.6255 70.791 90.4063 70.791M85.3711 75.8262L90.4063 70.791M90.4063 70.791H139.306M90.4063 70.791H139.306M139.306 70.791C142.087 70.791 144.341 73.0453 144.341 75.826L139.306 70.791Z" fill="#2626BC" stroke="#2626BC" stroke-width="3.64062"/>
<path d="M117 45.2461C115.738 45.2461 114.715 44.2228 114.715 42.9609C114.715 41.4486 113.485 40.2188 111.973 40.2188C110.711 40.2188 109.688 39.1955 109.688 37.9336C109.688 36.6717 110.711 35.6484 111.973 35.6484C113.485 35.6484 114.715 34.4186 114.715 32.9062C114.715 31.6444 115.738 30.6211 117 30.6211C118.262 30.6211 119.285 31.6444 119.285 32.9062C119.285 34.4186 120.515 35.6484 122.027 35.6484C123.289 35.6484 124.312 36.6717 124.312 37.9336C124.312 39.1955 123.289 40.2188 122.027 40.2188C120.515 40.2188 119.285 41.4486 119.285 42.9609C119.285 44.2228 118.262 45.2461 117 45.2461Z" fill="#6583FE"/>
<path d="M65.7826 206.26C65.1976 206.26 64.613 206.037 64.1665 205.591L59.1392 200.564C58.2466 199.671 58.2466 198.224 59.1392 197.332L64.1665 192.305C65.0591 191.413 66.5056 191.413 67.3982 192.305L72.4255 197.332C73.3181 198.225 73.3181 199.672 72.4255 200.564L67.3982 205.591C66.9526 206.037 66.3676 206.26 65.7826 206.26ZM63.9874 198.948L65.783 200.743L67.5787 198.948L65.783 197.152L63.9874 198.948Z" fill="#01ECA5"/>
<path opacity="0.1" d="M163.505 95.3687V162.815C163.505 164.78 161.91 166.374 159.946 166.374H72.1529C70.1883 166.374 68.5938 164.78 68.5938 162.815V95.3687C68.5938 93.4041 70.1883 91.8096 72.1529 91.8096H159.946C161.91 91.8096 163.505 93.4041 163.505 95.3687Z" fill="#2626BC"/>
<path d="M163.505 100.351V167.797C163.505 169.762 161.91 171.356 159.946 171.356H72.1529C70.1883 171.356 68.5938 169.762 68.5938 167.797V100.351C68.5938 98.3865 70.1883 96.792 72.1529 96.792H159.946C161.91 96.792 163.505 98.3865 163.505 100.351Z" fill="white"/>
<path d="M154.418 171.357H77.6758V164.921C77.6758 164.528 77.9944 164.209 78.3876 164.209H153.705C154.099 164.209 154.417 164.528 154.417 164.921V171.357H154.418Z" fill="#D2DEFF"/>
<path d="M77.676 108.222H154.418V113.234C154.418 113.627 154.099 113.946 153.706 113.946H78.3876C77.9944 113.946 77.6758 113.627 77.6758 113.234L77.676 108.222Z" fill="#D2DEFF"/>
<path d="M163.505 108.222V100.351C163.505 98.3855 161.911 96.792 159.946 96.792H72.1529C70.1873 96.792 68.5938 98.3855 68.5938 100.351V108.222H163.505Z" fill="#6583FE"/>
<path d="M77.6317 103.71C76.9763 103.71 76.4453 103.179 76.4453 102.524V102.489C76.4453 101.834 76.9763 101.303 77.6317 101.303C78.2871 101.303 78.8181 101.834 78.8181 102.489V102.524C78.8181 103.179 78.2871 103.71 77.6317 103.71Z" fill="#2626BC"/>
<path d="M82.2181 103.71C81.5628 103.71 81.0317 103.179 81.0317 102.524V102.489C81.0317 101.834 81.5628 101.303 82.2181 101.303C82.8735 101.303 83.4045 101.834 83.4045 102.489V102.524C83.4045 103.179 82.8735 103.71 82.2181 103.71Z" fill="#2626BC"/>
<path d="M86.8036 103.71C86.1482 103.71 85.6172 103.179 85.6172 102.524V102.489C85.6172 101.834 86.1482 101.303 86.8036 101.303C87.4589 101.303 87.99 101.834 87.99 102.489V102.524C87.99 103.179 87.4589 103.71 86.8036 103.71Z" fill="#2626BC"/>
<path d="M159.948 95.6055H72.1557C69.539 95.6055 67.4102 97.7343 67.4102 100.351V108.234C67.4102 108.889 67.9412 109.421 68.5965 109.421C68.639 109.421 68.6794 109.413 68.7206 109.408H163.508C164.163 109.408 164.694 108.877 164.694 108.222V100.351C164.694 97.7343 162.565 95.6055 159.948 95.6055ZM72.1557 97.9782H159.948C161.257 97.9782 162.321 99.0427 162.321 100.351V107.035H69.7829V100.351C69.7827 99.0424 70.8471 97.9782 72.1557 97.9782Z" fill="#2626BC"/>
<path d="M163.508 113.57C162.852 113.57 162.321 114.101 162.321 114.756V167.796C162.321 169.105 161.257 170.169 159.948 170.169H72.1557C70.8474 170.169 69.7829 169.105 69.7829 167.796V114.744C69.7829 114.089 69.2519 113.558 68.5965 113.558C67.9412 113.558 67.4102 114.089 67.4102 114.744V167.796C67.4102 170.413 69.539 172.542 72.1557 172.542H159.948C162.565 172.542 164.694 170.413 164.694 167.796V114.756C164.694 114.101 164.163 113.57 163.508 113.57Z" fill="#2626BC"/>
<path d="M106.07 138.783H78.3876C77.9944 138.783 77.6758 138.464 77.6758 138.071V118.816C77.6758 118.423 77.9944 118.104 78.3876 118.104H106.07C106.463 118.104 106.782 118.423 106.782 118.816V138.071C106.782 138.464 106.463 138.783 106.07 138.783Z" fill="#FF7EB8"/>
<path d="M88.7891 125.273V131.614C88.7891 132.163 89.3839 132.506 89.8585 132.23L95.3151 129.059C95.7873 128.785 95.7873 128.103 95.3151 127.828L89.8585 124.658C89.3839 124.382 88.7891 124.725 88.7891 125.273Z" fill="white"/>
<path d="M111.886 155.256H78.8675C78.2112 155.256 77.6792 154.724 77.6792 154.068C77.6792 153.412 78.2112 152.88 78.8675 152.88H111.886C112.542 152.88 113.074 153.412 113.074 154.068C113.074 154.724 112.542 155.256 111.886 155.256Z" fill="#B7C5FF"/>
<path d="M111.883 146.481H95.6727C95.0164 146.481 94.4844 145.949 94.4844 145.293C94.4844 144.636 95.0164 144.104 95.6727 144.104H111.883C112.54 144.104 113.072 144.636 113.072 145.293C113.072 145.949 112.54 146.481 111.883 146.481Z" fill="#6583FE"/>
<path d="M111.886 159.97H78.8675C78.2112 159.97 77.6792 159.438 77.6792 158.782C77.6792 158.126 78.2112 157.594 78.8675 157.594H111.886C112.542 157.594 113.074 158.126 113.074 158.782C113.074 159.438 112.542 159.97 111.886 159.97Z" fill="#B7C5FF"/>
<path d="M153.234 129.207H113.67C113.013 129.207 112.481 128.675 112.481 128.018C112.481 127.362 113.013 126.83 113.67 126.83H153.234C153.89 126.83 154.422 127.362 154.422 128.018C154.422 128.675 153.89 129.207 153.234 129.207Z" fill="#B7C5FF"/>
<path d="M138.997 120.481H113.67C113.013 120.481 112.481 119.949 112.481 119.293C112.481 118.636 113.013 118.104 113.67 118.104H138.997C139.654 118.104 140.186 118.636 140.186 119.293C140.186 119.949 139.654 120.481 138.997 120.481Z" fill="#FFA8CF"/>
<path d="M153.234 133.921H113.67C113.013 133.921 112.481 133.389 112.481 132.732C112.481 132.076 113.013 131.544 113.67 131.544H153.234C153.89 131.544 154.422 132.076 154.422 132.732C154.422 133.389 153.89 133.921 153.234 133.921Z" fill="#B7C5FF"/>
<path d="M153.234 138.734H113.67C113.013 138.734 112.481 138.202 112.481 137.546C112.481 136.889 113.013 136.357 113.67 136.357H153.234C153.89 136.357 154.422 136.889 154.422 137.546C154.422 138.202 153.89 138.734 153.234 138.734Z" fill="#B7C5FF"/>
<path d="M153.706 159.97H118.419C118.026 159.97 117.707 159.652 117.707 159.258V144.816C117.707 144.423 118.026 144.104 118.419 144.104H153.706C154.099 144.104 154.418 144.423 154.418 144.816V159.258C154.418 159.652 154.099 159.97 153.706 159.97Z" fill="#6583FE"/>
<path d="M140.075 153.364C140.808 153.364 141.402 152.77 141.402 152.037C141.402 151.305 140.808 150.711 140.075 150.711C139.343 150.711 138.749 151.305 138.749 152.037C138.749 152.77 139.343 153.364 140.075 153.364Z" fill="#D2DEFF"/>
<path d="M136.064 153.364C136.796 153.364 137.39 152.77 137.39 152.037C137.39 151.305 136.796 150.711 136.064 150.711C135.331 150.711 134.737 151.305 134.737 152.037C134.737 152.77 135.331 153.364 136.064 153.364Z" fill="#D2DEFF"/>
<path d="M132.052 153.364C132.785 153.364 133.378 152.77 133.378 152.037C133.378 151.305 132.785 150.711 132.052 150.711C131.319 150.711 130.726 151.305 130.726 152.037C130.726 152.77 131.319 153.364 132.052 153.364Z" fill="#D2DEFF"/>
</g>
<defs>
<linearGradient id="paint0_linear" x1="2.46815" y1="117" x2="231.533" y2="117" gradientUnits="userSpaceOnUse">
<stop stop-color="#FFDBED"/>
<stop offset="1" stop-color="#DCFDEE"/>
</linearGradient>
<clipPath id="clip0">
<rect width="234" height="234" fill="white"/>
</clipPath>
</defs>
</svg>
