<svg xmlns="http://www.w3.org/2000/svg" width="312" height="160" fill="none"><g clip-path="url(#a)"><path fill="url(#b)" d="M77.722 123.231c23.764 16.269 46.815 3.011 72.525 7.698 25.897 4.722 36.214 20.444 65.709 13.187 26.128-6.428 41.981-32.203 27.618-53.781-8.074-9.46-24.768-10.148-27.618-17.029-4.597-11.098 16.633-16.027 14.738-31.167-5.672-45.32-83.4-27.766-112.001-13.665C73.839 50.587 43.495 99.8 77.722 123.23Z" opacity=".2"/><path stroke="url(#c)" stroke-linecap="round" stroke-width="4" d="M175 19H96a4 4 0 0 0-4 4v116a4 4 0 0 0 4 4h120a4 4 0 0 0 4-4V51.5"/><path fill="#fff" stroke="#9046D9" stroke-width="4" d="M70.423 78.891a5.286 5.286 0 0 1 0-7.216c17.588-18.861 42.663-30.651 70.494-30.651 27.831 0 52.899 11.79 70.487 30.65l1.401-1.306-1.401 1.307a5.287 5.287 0 0 1-.001 7.216l1.462 1.364-1.462-1.364c-17.594 18.861-42.662 30.645-70.486 30.645-27.832 0-52.9-11.784-70.494-30.645Z"/><path fill="#9046D9" d="M140.913 100c13.807 0 25-11.193 25-25s-11.193-25-25-25-25 11.193-25 25 11.193 25 25 25Z"/><path fill="#000" d="M140.913 87c6.075 0 11-5.373 11-12s-4.925-12-11-12-11 5.373-11 12 4.925 12 11 12Z"/><path fill="#F5DCED" d="M145.913 76c1.657 0 3-1.567 3-3.5s-1.343-3.5-3-3.5-3 1.567-3 3.5 1.343 3.5 3 3.5ZM160.413 60c2.485 0 4.5-1.12 4.5-2.5s-2.015-2.5-4.5-2.5-4.5 1.12-4.5 2.5 2.015 2.5 4.5 2.5ZM122.413 95c2.485 0 4.5-1.12 4.5-2.5s-2.015-2.5-4.5-2.5-4.5 1.12-4.5 2.5 2.015 2.5 4.5 2.5Z"/><mask id="d" width="36" height="52" x="202" y="106" maskUnits="userSpaceOnUse" style="mask-type:alpha"><path fill="#9FB0FE" d="M202 112a6 6 0 0 1 6-6h24a6 6 0 0 1 6 6v40a6 6 0 0 1-6 6h-24a6 6 0 0 1-6-6v-40Z"/></mask><g mask="url(#d)"><path fill="#D3DFFF" d="M202 112a6 6 0 0 1 6-6h24a6 6 0 0 1 6 6v40a6 6 0 0 1-6 6h-24a6 6 0 0 1-6-6v-40Z"/><path fill="url(#e)" d="M217.178 150.833a7.701 7.701 0 1 0-7.702-7.701 7.701 7.701 0 0 0 7.702 7.701Z"/><path fill="#6583FE" d="M237.965 157.965v-15.371a26.052 26.052 0 0 0-8.578-1.443c-11.14 0-20.646 6.986-24.386 16.814h32.964Z"/><path fill="#9046D9" d="M229.161 157.965H202v-10.397a17.875 17.875 0 0 1 9.807-2.911c8.31 0 15.304 5.643 17.354 13.308Z"/><path stroke="url(#f)" stroke-width="2" d="M203 112a5 5 0 0 1 5-5h24a5 5 0 0 1 5 5v40a5 5 0 0 1-5 5h-24a5 5 0 0 1-5-5v-40Z"/></g><path fill="url(#g)" d="M105.616 120.602h-27.63A3.986 3.986 0 0 1 74 116.616v-27.63A3.985 3.985 0 0 1 77.985 85h27.631a3.986 3.986 0 0 1 3.986 3.985v27.631a3.987 3.987 0 0 1-3.986 3.986Z"/><path fill="#fff" d="M101.488 94.993a2.611 2.611 0 1 0 0-5.222 2.611 2.611 0 0 0 0 5.222Z"/><path fill="#3675F0" d="M74 105.923v10.693a3.986 3.986 0 0 0 3.985 3.986h27.631a3.987 3.987 0 0 0 3.986-3.986v-10.693H74Z"/><path fill="#fff" d="M91.8 111.614a8.813 8.813 0 0 0 8.813-8.813 8.813 8.813 0 1 0-17.626 0 8.813 8.813 0 0 0 8.813 8.813Z"/><path fill="url(#h)" d="M91.801 106.454a3.653 3.653 0 1 0 .001-7.306 3.653 3.653 0 0 0-.001 7.306Z"/><path stroke="url(#i)" stroke-width="2" d="M105.616 119.602h-27.63A2.986 2.986 0 0 1 75 116.616v-27.63A2.985 2.985 0 0 1 77.985 86h27.631a2.986 2.986 0 0 1 2.986 2.985v27.631a2.986 2.986 0 0 1-2.986 2.986Z"/><rect width="53" height="34.3" x="193" y="2" fill="url(#j)" stroke="url(#k)" stroke-width="2" rx="3"/><path fill="#fff" stroke="url(#l)" stroke-width="2" d="m214.904 26.71 12.355-6.767a.678.678 0 0 0 0-1.19l-12.355 7.957Zm0 0a.678.678 0 0 1-1.004-.596V12.582a.678.678 0 0 1 1.004-.595l12.355 6.767-12.355 7.957Z"/><circle cx="88" cy="8" r="2" stroke="url(#m)" stroke-width="2" opacity=".6"/><circle cx="78" cy="25" r="2" stroke="url(#n)" stroke-width="2" opacity=".6"/><circle cx="243" cy="143" r="2" stroke="url(#o)" stroke-width="2" opacity=".6"/><circle cx="246.5" cy="137" r="1" stroke="url(#p)" opacity=".6"/><circle cx="73" cy="8" r="5" stroke="url(#q)" stroke-width="4" opacity=".6"/></g><defs><linearGradient id="b" x1="32.228" x2="204.7" y1="-14.016" y2="205.516" gradientUnits="userSpaceOnUse"><stop stop-color="#8571FF"/><stop offset=".583" stop-color="#D278E0"/><stop offset="1" stop-color="#FF5B96"/></linearGradient><linearGradient id="c" x1="241.176" x2="75.994" y1="168.188" y2="12.995" gradientUnits="userSpaceOnUse"><stop stop-color="#8571FF"/><stop offset=".583" stop-color="#D278E0"/><stop offset="1" stop-color="#FF5B96"/></linearGradient><linearGradient id="e" x1="227.427" x2="206.96" y1="153.962" y2="135.334" gradientUnits="userSpaceOnUse"><stop stop-color="#8571FF"/><stop offset=".583" stop-color="#D278E0"/><stop offset="1" stop-color="#FF5B96"/></linearGradient><linearGradient id="f" x1="243.956" x2="181.348" y1="168.563" y2="129.113" gradientUnits="userSpaceOnUse"><stop stop-color="#8571FF"/><stop offset=".583" stop-color="#D278E0"/><stop offset="1" stop-color="#FF5B96"/></linearGradient><linearGradient id="g" x1="115.492" x2="68.184" y1="127.833" y2="84.775" gradientUnits="userSpaceOnUse"><stop stop-color="#8571FF"/><stop offset=".583" stop-color="#D278E0"/><stop offset="1" stop-color="#FF5B96"/></linearGradient><linearGradient id="h" x1="96.663" x2="86.954" y1="107.938" y2="99.102" gradientUnits="userSpaceOnUse"><stop stop-color="#8571FF"/><stop offset=".583" stop-color="#D278E0"/><stop offset="1" stop-color="#FF5B96"/></linearGradient><linearGradient id="i" x1="115.492" x2="68.184" y1="127.833" y2="84.775" gradientUnits="userSpaceOnUse"><stop stop-color="#8571FF"/><stop offset=".583" stop-color="#D278E0"/><stop offset="1" stop-color="#FF5B96"/></linearGradient><linearGradient id="j" x1="256.099" x2="210.048" y1="44.673" y2="-18.832" gradientUnits="userSpaceOnUse"><stop stop-color="#8571FF"/><stop offset=".583" stop-color="#D278E0"/><stop offset="1" stop-color="#FF5B96"/></linearGradient><linearGradient id="k" x1="256.099" x2="210.048" y1="44.673" y2="-18.832" gradientUnits="userSpaceOnUse"><stop stop-color="#8571FF"/><stop offset=".583" stop-color="#D278E0"/><stop offset="1" stop-color="#FF5B96"/></linearGradient><linearGradient id="l" x1="231.21" x2="208.97" y1="31.227" y2="12.404" gradientUnits="userSpaceOnUse"><stop stop-color="#8571FF"/><stop offset=".583" stop-color="#D278E0"/><stop offset="1" stop-color="#FF5B96"/></linearGradient><linearGradient id="m" x1="91.993" x2="84.02" y1="12.219" y2="4.962" gradientUnits="userSpaceOnUse"><stop stop-color="#8571FF"/><stop offset=".583" stop-color="#D278E0"/><stop offset="1" stop-color="#FF5B96"/></linearGradient><linearGradient id="n" x1="81.993" x2="74.02" y1="29.219" y2="21.962" gradientUnits="userSpaceOnUse"><stop stop-color="#8571FF"/><stop offset=".583" stop-color="#D278E0"/><stop offset="1" stop-color="#FF5B96"/></linearGradient><linearGradient id="o" x1="246.993" x2="239.02" y1="147.219" y2="139.962" gradientUnits="userSpaceOnUse"><stop stop-color="#8571FF"/><stop offset=".583" stop-color="#D278E0"/><stop offset="1" stop-color="#FF5B96"/></linearGradient><linearGradient id="p" x1="248.496" x2="244.51" y1="139.109" y2="135.481" gradientUnits="userSpaceOnUse"><stop stop-color="#8571FF"/><stop offset=".583" stop-color="#D278E0"/><stop offset="1" stop-color="#FF5B96"/></linearGradient><linearGradient id="q" x1="82.316" x2="63.713" y1="17.844" y2=".912" gradientUnits="userSpaceOnUse"><stop stop-color="#8571FF"/><stop offset=".583" stop-color="#D278E0"/><stop offset="1" stop-color="#FF5B96"/></linearGradient><clipPath id="a"><path fill="#fff" d="M0 0h312v160H0z"/></clipPath></defs></svg>