<svg width="312" height="160" fill="none" xmlns="http://www.w3.org/2000/svg">
  <path opacity=".2" d="M57.63 31.403c29.112-16.43 52.45-5.083 83.946-9.817 31.724-4.768 43.811-7.329 79.944 0 32.008 6.492 51.429 32.522 33.833 54.314-5.014 6.21-13.556 10.895-17.047 17.843-5.631 11.209 2.94 19.814 1.268 30.83-6.947 45.768-102.167 28.04-137.204 13.8-54.948-22.332-89.712-81.59-44.74-106.97Z" fill="url(#a)"/>
  <path d="M104.224 121.14V31.749a5.807 5.807 0 0 1 5.805-5.805h89.391c3.203 0 5.804 2.601 5.804 5.805v89.391a5.807 5.807 0 0 1-5.804 5.804h-89.391a5.807 5.807 0 0 1-5.805-5.804Z" fill="#BF97FF" stroke="#9046D9" stroke-width="3"/>
  <mask id="b" style="mask-type:alpha" maskUnits="userSpaceOnUse" x="102" y="24" width="105" height="105">
    <path d="M104.224 121.14V31.749a5.807 5.807 0 0 1 5.805-5.805h89.391c3.203 0 5.804 2.601 5.804 5.805v89.391a5.807 5.807 0 0 1-5.804 5.804h-89.391a5.807 5.807 0 0 1-5.805-5.804Z" fill="#97FFD2" stroke="#9046D9" stroke-width="3"/>
  </mask>
  <g mask="url(#b)">
    <path d="M197.863 72h-83.726c-.628 0-1.137-.856-1.137-1.912V24h86v46.088c0 1.056-.509 1.912-1.137 1.912Z" fill="#EECAFF"/>
    <path d="M189.155 60.14a2.572 2.572 0 0 1 2.576 2.567 2.572 2.572 0 0 1-2.576 2.566 2.572 2.572 0 0 1-2.577-2.566 2.572 2.572 0 0 1 2.577-2.567ZM189.155 52.377a2.572 2.572 0 0 1 2.576 2.567 2.572 2.572 0 0 1-2.576 2.566 2.572 2.572 0 0 1-2.577-2.566 2.572 2.572 0 0 1 2.577-2.567ZM189.155 44.614a2.572 2.572 0 0 1 2.576 2.567 2.572 2.572 0 0 1-2.576 2.566 2.572 2.572 0 0 1-2.577-2.566 2.572 2.572 0 0 1 2.577-2.566Z" fill="#FF86BF"/>
    <path d="M197.863 133h-83.726c-.628 0-1.137-.999-1.137-2.231V77h86v53.769c0 1.232-.509 2.231-1.137 2.231Z" fill="#FDDCEE"/>
    <path d="M189.155 100.14a2.572 2.572 0 0 1 2.576 2.567 2.572 2.572 0 0 1-2.576 2.566 2.572 2.572 0 0 1-2.577-2.566 2.572 2.572 0 0 1 2.577-2.567ZM189.155 92.377a2.572 2.572 0 0 1 2.576 2.567 2.572 2.572 0 0 1-2.576 2.566 2.572 2.572 0 0 1-2.577-2.566 2.572 2.572 0 0 1 2.577-2.567ZM189.155 84.615a2.572 2.572 0 0 1 2.576 2.566 2.572 2.572 0 0 1-2.576 2.566 2.572 2.572 0 0 1-2.577-2.566 2.572 2.572 0 0 1 2.577-2.566Z" fill="#FF5BA8"/>
  </g>
  <path d="M104.224 121.14V31.749a5.807 5.807 0 0 1 5.805-5.805h89.391c3.203 0 5.804 2.601 5.804 5.805v89.391a5.807 5.807 0 0 1-5.804 5.804h-89.391a5.807 5.807 0 0 1-5.805-5.804Z" stroke="#9046D9" stroke-width="3"/>
  <path d="M62.698 93.395c1.358 0 2.717.517 3.75 1.552a5.312 5.312 0 0 1 0 7.502 5.311 5.311 0 0 1-7.501 0 5.272 5.272 0 0 1-1.554-3.752 5.27 5.27 0 0 1 1.554-3.75 5.289 5.289 0 0 1 3.75-1.552Zm0 6.974c.428 0 .856-.163 1.182-.489a1.674 1.674 0 0 0 0-2.364 1.674 1.674 0 0 0-2.855 1.182 1.667 1.667 0 0 0 1.672 1.671Z" fill="url(#c)"/>
  <path d="M49.305 61c1.358 0 2.717.517 3.751 1.551a5.27 5.27 0 0 1 1.554 3.751 5.27 5.27 0 0 1-1.554 3.752 5.31 5.31 0 0 1-7.502 0A5.27 5.27 0 0 1 44 66.302c0-1.417.552-2.749 1.554-3.75A5.288 5.288 0 0 1 49.305 61Zm0 6.974c.428 0 .856-.163 1.182-.49a1.66 1.66 0 0 0 .49-1.181 1.674 1.674 0 0 0-3.344 0c0 .446.174.866.49 1.182.325.326.754.489 1.182.489Z" fill="url(#d)"/>
  <path d="M235.816 21.63h1.181v1.18a1.816 1.816 0 1 0 3.633 0v-1.18h1.181a1.816 1.816 0 0 0 0-3.633h-1.181v-1.18a1.817 1.817 0 0 0-3.633 0v1.18h-1.181a1.816 1.816 0 0 0 0 3.633Z" fill="url(#e)"/>
  <path d="M250.816 32.63h1.181v1.18a1.816 1.816 0 1 0 3.633 0v-1.18h1.181a1.816 1.816 0 0 0 0-3.633h-1.181v-1.18a1.817 1.817 0 0 0-3.633 0v1.18h-1.181a1.816 1.816 0 0 0 0 3.633Z" fill="url(#f)"/>
  <path d="M44.19 122.003h1.18v1.181a1.816 1.816 0 0 0 3.633 0v-1.181h1.18a1.816 1.816 0 1 0 0-3.633h-1.18v-1.181a1.816 1.816 0 0 0-3.633 0v1.181h-1.18a1.817 1.817 0 0 0 0 3.633Z" fill="url(#g)"/>
  <path d="M77.805 27.278c0-6.474 5.249-11.722 11.723-11.722H145.472c6.474 0 11.722 5.248 11.722 11.722v57c0 6.474-5.248 11.722-11.722 11.722H89.528c-6.474 0-11.723-5.248-11.723-11.722v-57Z" fill="#DADEFC" stroke="#9046D9" stroke-width="4"/>
  <path d="m92.167 54.722 27.209-7.915c.794-.231 1.533.5 1.311 1.296l-4.251 15.304a1.056 1.056 0 0 0 1.333 1.29l25.064-7.864M104.833 3.528l8.973 10.555h7.388l8.973-10.555" stroke="#9046D9" stroke-width="4" stroke-linecap="round"/>
  <path d="M181 99.641v18.429c0 12.742 10.329 23.071 23.07 23.071 12.742 0 23.071-10.329 23.071-23.071 0-12.741-10.329-23.07-23.071-23.07h-18.428A4.642 4.642 0 0 0 181 99.641Z" fill="#F9F9F9" stroke="url(#h)" stroke-width="4"/>
  <path d="M200.402 125.994a1.358 1.358 0 0 1-2.011-1.191V112.5a1.358 1.358 0 0 1 2.011-1.191l11.231 6.151a1.359 1.359 0 0 1 0 2.383l-11.231 6.151Z" fill="url(#i)" stroke="url(#j)" stroke-width=".335"/>
  <defs>
    <linearGradient id="a" x1="-.224" y1="181.828" x2="168.79" y2="-70.813" gradientUnits="userSpaceOnUse">
      <stop stop-color="#8571FF"/>
      <stop offset=".583" stop-color="#D278E0"/>
      <stop offset="1" stop-color="#FF5B96"/>
    </linearGradient>
    <linearGradient id="c" x1="55.638" y1="91.241" x2="69.73" y2="104.07" gradientUnits="userSpaceOnUse">
      <stop stop-color="#8571FF"/>
      <stop offset=".583" stop-color="#D278E0"/>
      <stop offset="1" stop-color="#FF5B96"/>
    </linearGradient>
    <linearGradient id="d" x1="42.245" y1="58.846" x2="56.337" y2="71.678" gradientUnits="userSpaceOnUse">
      <stop stop-color="#8571FF"/>
      <stop offset=".583" stop-color="#D278E0"/>
      <stop offset="1" stop-color="#FF5B96"/>
    </linearGradient>
    <linearGradient id="e" x1="232.407" y1="13.044" x2="245.2" y2="24.688" gradientUnits="userSpaceOnUse">
      <stop stop-color="#8571FF"/>
      <stop offset=".583" stop-color="#D278E0"/>
      <stop offset="1" stop-color="#FF5B96"/>
    </linearGradient>
    <linearGradient id="f" x1="247.407" y1="24.044" x2="260.2" y2="35.688" gradientUnits="userSpaceOnUse">
      <stop stop-color="#8571FF"/>
      <stop offset=".583" stop-color="#D278E0"/>
      <stop offset="1" stop-color="#FF5B96"/>
    </linearGradient>
    <linearGradient id="g" x1="40.78" y1="113.418" x2="53.573" y2="125.061" gradientUnits="userSpaceOnUse">
      <stop stop-color="#8571FF"/>
      <stop offset=".583" stop-color="#D278E0"/>
      <stop offset="1" stop-color="#FF5B96"/>
    </linearGradient>
    <linearGradient id="h" x1="176.028" y1="88.44" x2="232.025" y2="139.407" gradientUnits="userSpaceOnUse">
      <stop stop-color="#8571FF"/>
      <stop offset=".583" stop-color="#D278E0"/>
      <stop offset="1" stop-color="#FF5B96"/>
    </linearGradient>
    <linearGradient id="i" x1="214.869" y1="129.451" x2="194.651" y2="112.339" gradientUnits="userSpaceOnUse">
      <stop stop-color="#8571FF"/>
      <stop offset=".583" stop-color="#D278E0"/>
      <stop offset="1" stop-color="#FF5B96"/>
    </linearGradient>
    <linearGradient id="j" x1="214.869" y1="129.451" x2="194.651" y2="112.339" gradientUnits="userSpaceOnUse">
      <stop stop-color="#8571FF"/>
      <stop offset=".583" stop-color="#D278E0"/>
      <stop offset="1" stop-color="#FF5B96"/>
    </linearGradient>
  </defs>
</svg>
