<svg xmlns="http://www.w3.org/2000/svg" width="312" height="160" fill="none"><g clip-path="url(#a)"><path fill="url(#b)" d="M58.678 99.634c18.226 23.799 44.345 15.382 67.817 27.122 23.641 11.824 29.037 31.55 59.637 31.311 27.106-.211 49.911-24.067 42.309-51.192-2.167-7.73-7.553-14.567-8.306-22.768-1.214-13.23 8.021-20.662 9.873-32.847C237.703.63 157.521-.445 125.796 7.448c-49.754 12.379-93.368 57.91-67.118 92.186Z"/><path fill="#8399FE" d="M55.043 39.755a5.289 5.289 0 0 1-3.752-1.551 5.311 5.311 0 0 1 0-7.503 5.31 5.31 0 0 1 7.503 0 5.271 5.271 0 0 1 1.553 3.752 5.27 5.27 0 0 1-1.554 3.751 5.288 5.288 0 0 1-3.75 1.55Zm0-6.974c-.429 0-.857.163-1.182.489a1.674 1.674 0 0 0 0 2.364 1.674 1.674 0 0 0 2.854-1.182 1.667 1.667 0 0 0-1.672-1.671Z"/><path fill="#FF7EB8" d="M72.81 11.997h-1.18v-1.18a1.817 1.817 0 0 0-3.633 0v1.18h-1.18a1.817 1.817 0 0 0 0 3.633h1.18v1.18a1.817 1.817 0 0 0 3.633 0v-1.18h1.18a1.817 1.817 0 0 0 0-3.633ZM270.811 138.997h-1.181v-1.181a1.817 1.817 0 0 0-3.633 0v1.181h-1.181a1.816 1.816 0 1 0 0 3.633h1.181v1.181a1.816 1.816 0 1 0 3.633 0v-1.181h1.181a1.817 1.817 0 0 0 0-3.633Z"/><path fill="#01ECA5" d="M287.811 109.997h-1.181v-1.181a1.817 1.817 0 0 0-3.633 0v1.181h-1.181a1.816 1.816 0 1 0 0 3.633h1.181v1.181a1.816 1.816 0 1 0 3.633 0v-1.181h1.181a1.817 1.817 0 0 0 0-3.633Z"/><path fill="#2626BC" fill-rule="evenodd" d="M110.762 54.653 250.508 68.43V18.275c0-3.803-3.096-6.887-6.916-6.887H117.678c-3.819 0-6.916 3.083-6.916 6.888v36.377Z" clip-rule="evenodd" opacity=".1"/><path fill="#9FB0FE" d="M201.384 147.704h-41.498l5.434-21.439 2.867-11.316h24.896l2.867 11.316 5.434 21.439Z"/><path fill="#8399FE" d="M195.95 126.265h-30.629l2.867-11.316h24.895l2.867 11.316Z"/><path fill="#fff" d="M243.593 121.216H117.678c-3.819 0-6.915-3.084-6.915-6.888v-89.79c0-3.803 3.096-6.887 6.915-6.887h125.915c3.819 0 6.916 3.084 6.916 6.888v89.789c0 3.804-3.097 6.888-6.916 6.888Z"/><path stroke="#2626BC" stroke-width="3" d="M158.748 146.09a2.5 2.5 0 0 0 2.423 3.114h38.928a2.5 2.5 0 0 0 2.423-3.114l-5.118-20.193-1.243-4.904a2.5 2.5 0 0 0-2.423-1.886h-26.206a2.5 2.5 0 0 0-2.423 1.886l-1.243 4.904-5.118 20.193Z"/><path fill="#6583FE" d="M250.509 35.202V24.54c.491-6.539-3.097-6.888-6.916-6.888H117.678c-3.819 0-7.678 0-6.915 6.888v10.663h139.746Z"/><path fill="#B7C5FF" d="M110.763 102.857v11.471c0 3.804 3.096 6.888 6.915 6.888h125.915c3.819 0 6.916-3.084 6.916-6.888v-11.471H110.763Z"/><path fill="#2626BC" d="M124.693 24.105a2.3 2.3 0 0 0-2.304 2.295v.053a2.3 2.3 0 0 0 2.304 2.295 2.3 2.3 0 0 0 2.305-2.295V26.4a2.3 2.3 0 0 0-2.305-2.295ZM131.763 24.105a2.3 2.3 0 0 0-2.304 2.295v.053a2.3 2.3 0 0 0 2.304 2.295 2.3 2.3 0 0 0 2.305-2.295V26.4a2.3 2.3 0 0 0-2.305-2.295ZM138.833 24.105a2.3 2.3 0 0 0-2.305 2.295v.053a2.3 2.3 0 0 0 2.305 2.295 2.3 2.3 0 0 0 2.304-2.295V26.4a2.3 2.3 0 0 0-2.304-2.295Z"/><path stroke="#2626BC" stroke-width="3" d="M245.824 121.5H115.176a5.68 5.68 0 0 1-5.676-5.683V22.183a5.68 5.68 0 0 1 5.676-5.683h130.648a5.68 5.68 0 0 1 5.676 5.683V115.817a5.68 5.68 0 0 1-5.676 5.683Z"/><path fill="#2626BC" fill-rule="evenodd" d="m104.379 105.521 14.607-14.026V74.946A2.943 2.943 0 0 0 116.047 72H81.939A2.942 2.942 0 0 0 79 74.946v27.629a2.942 2.942 0 0 0 2.939 2.946h22.44Z" clip-rule="evenodd" opacity=".1"/><path fill="#2626BC" fill-rule="evenodd" d="m74.379 78.521 14.607-14.026V47.946A2.942 2.942 0 0 0 86.047 45H51.94A2.942 2.942 0 0 0 49 47.946v27.629a2.942 2.942 0 0 0 2.939 2.946h22.44ZM259.379 74.521l14.607-14.026V43.946A2.943 2.943 0 0 0 271.047 41h-34.108A2.943 2.943 0 0 0 234 43.946v27.629a2.943 2.943 0 0 0 2.939 2.946h22.44Z" clip-rule="evenodd" opacity=".1"/><path fill="#8399FE" stroke="#657BE0" stroke-width="2" d="M53 53a4 4 0 0 1 4-4h30a4 4 0 0 1 4 4v30a4 4 0 0 1-4 4H57a4 4 0 0 1-4-4V53Z"/><path fill="#FBD242" d="M71.67 56.93v-3.144a.786.786 0 0 1 1.572 0v3.144a.786.786 0 1 1-1.571 0Zm8.908 11.527a8.122 8.122 0 1 1-8.121-8.122 8.13 8.13 0 0 1 8.12 8.122Zm-17.06-7.828a.786.786 0 1 0 1.11-1.111l-2.095-2.096a.786.786 0 0 0-1.11 1.11l2.095 2.097Zm0 15.655-2.096 2.096a.787.787 0 1 0 1.11 1.11l2.097-2.095a.785.785 0 1 0-1.111-1.11ZM80.84 60.86a.786.786 0 0 0 .555-.23l2.096-2.096a.786.786 0 0 0-1.11-1.11l-2.097 2.095a.786.786 0 0 0 .556 1.341Zm.555 15.425a.786.786 0 0 0-1.11 1.111l2.095 2.096a.786.786 0 0 0 1.11-1.11l-2.095-2.097Zm-19.68-7.828a.786.786 0 0 0-.785-.785h-3.144a.786.786 0 0 0 0 1.571h3.144a.786.786 0 0 0 .785-.785Zm10.742 10.742a.786.786 0 0 0-.786.785v3.144a.786.786 0 1 0 1.571 0v-3.144a.786.786 0 0 0-.785-.785Zm14.67-11.527h-3.144a.786.786 0 0 0 0 1.571h3.144a.786.786 0 1 0 0-1.571Z"/><path fill="#9FB0FE" stroke="#657BE0" stroke-width="2" d="M238 49a4 4 0 0 1 4-4h30a4 4 0 0 1 4 4v30a4 4 0 0 1-4 4h-30a4 4 0 0 1-4-4V49Z"/><mask id="c" width="36" height="36" x="239" y="46" maskUnits="userSpaceOnUse" style="mask-type:alpha"><path fill="#FF7EB8" d="M275 79a3 3 0 0 1-3 3h-30a3 3 0 0 1-3-3V50.03a4.03 4.03 0 0 1 4.03-4.03h27.94a4.03 4.03 0 0 1 4.03 4.03V79Z"/></mask><g mask="url(#c)"><path fill="#9FB0FE" d="M237.689 44.676h38.08v38.08h-38.08v-38.08Z"/><path fill="#FFC5DF" d="M253.759 75.206a8.154 8.154 0 0 0 8.154-8.155 8.154 8.154 0 1 0-16.308 0 8.154 8.154 0 0 0 8.154 8.155Z"/><path fill="#01ECA5" d="M275.769 82.757V66.482a27.59 27.59 0 0 0-9.082-1.528c-11.796 0-21.861 7.397-25.821 17.803h34.903Z"/><path fill="#97FFD2" d="M266.448 82.757h-28.759V71.749a18.927 18.927 0 0 1 10.383-3.082c8.799 0 16.205 5.974 18.376 14.09Z"/></g><path fill="#9FB0FE" stroke="#657BE0" stroke-width="2" d="M84 80a4 4 0 0 1 4-4h30a4 4 0 0 1 4 4v30a4 4 0 0 1-4 4H88a4 4 0 0 1-4-4V80Z"/><mask id="d" width="35" height="35" x="86" y="78" maskUnits="userSpaceOnUse" style="mask-type:alpha"><path fill="#FF7EB8" d="M117.082 112.5H89.918c-2.164 0-3.918-1.729-3.918-3.862V81.862C86 79.729 87.754 78 89.918 78h27.164c2.164 0 3.918 1.729 3.918 3.862v26.776c0 2.133-1.754 3.862-3.918 3.862Z"/></mask><g mask="url(#d)"><path fill="#9FB0FE" d="M84.725 76.732h37.023v36.493H84.725V76.732Z"/><path fill="#fff" d="M95.891 104.45c3.082 0 5.58-2.463 5.58-5.5 0-3.038-2.498-5.5-5.58-5.5-3.081 0-5.58 2.462-5.58 5.5 0 3.037 2.499 5.5 5.58 5.5Z"/><path fill="#fff" d="M102.993 98.45c3.642 0 6.594-2.91 6.594-6.5s-2.952-6.5-6.594-6.5c-3.642 0-6.594 2.91-6.594 6.5s2.952 6.5 6.594 6.5Z"/><path fill="#fff" d="M101.978 106.45c3.082 0 5.58-2.463 5.58-5.5 0-3.038-2.498-5.5-5.58-5.5-3.081 0-5.58 2.462-5.58 5.5 0 3.037 2.499 5.5 5.58 5.5Z"/><path fill="#fff" d="M113.138 108.45c4.762 0 8.623-3.806 8.623-8.5 0-4.695-3.861-8.5-8.623-8.5-4.763 0-8.623 3.805-8.623 8.5 0 4.694 3.86 8.5 8.623 8.5Z"/><path fill="#fff" d="M115.167 101.45c5.322 0 9.637-4.254 9.637-9.5 0-5.247-4.315-9.5-9.637-9.5-5.323 0-9.638 4.253-9.638 9.5 0 5.246 4.315 9.5 9.638 9.5Z"/></g><path fill="#FFDCEE" fill-rule="evenodd" d="M224 42.833A1.833 1.833 0 0 0 222.167 41h-84.334c-1.012 0-1.833.82-1.833 1.833v38.069c13.922-6.401 21.083-7.55 35.75-7.55 9.204 0 16.963 2.337 24.072 4.476 4.22 1.27 8.21 2.471 12.136 3.074C218.5 82.52 224 73.352 224 73.352V42.834Z" clip-rule="evenodd"/><path fill="#97FFD2" d="M136 94.167c0 1.012.821 1.833 1.833 1.833h84.334c1.012 0 1.833-.82 1.833-1.833V73.353s-5.5 9.167-16.042 7.549c-3.926-.603-7.916-1.804-12.136-3.074-7.109-2.14-14.868-4.475-24.072-4.475-14.667 0-21.828 1.148-35.75 7.549v13.265Z"/><path fill="#FFC5A4" d="m194.779 77.085 2.884 2.926 6.067 1.35-1.401 4.404.814 3.492 2.396-.775 2.848-5.403 1.311-5.592c-1.149-1.797-2.608-3.596-3.426-5.423-1.942-1.523-2.715-3.983-4.034-6.419l-7.459 11.44Zm-17.687-.64-1.973 3.084-1.718 8.175-1.738 1.903-3.191-1.18-.511-5.381s.892-5.195 1.435-7.404c.542-2.21 5.587-2.584 5.587-2.584l2.109 3.387Z"/><path fill="#FFC5A4" d="m216.85 47.104-2.894-.604-4.655 1.69-.792 4.78-.406 3.407-3.527 4.149-2.87 1.68-1.91.006c-.044-.059-.082-.12-.128-.178h-3.57l-5.774-2.208-6.479-2.264-10.734.587-6.99 1.344-6.862-2.989-4.623-3.07-3.931.804 1.899 3.706-3.6 5.534 1.021 4.598 5.523.129 1.975.468 3.685-1.3-.286 3.514 1.205 2.971-1.205 2.152-4.025 3.2-.527 4.441 3.036 3.57s4.274-.34 2.544-4.968l3.037-2.965 5.151-1.34 2.141-1.32 4.813.856h9.125l2.311 3.694-1.545 5.082.103 2.993 2.773-.293 3.199-4.264 2.102-2.789V78.12l3.95-3.876 2.547-5.359s.022-.15.036-.408l.013.019s6.626-3.26 9.039-8.166c3.903-5.484-.735-10.823 4.816-9.019 1.399.455 2.983-2.441 1.288-4.204l.001-.003Z"/><path stroke="#FF9353" stroke-linecap="round" stroke-linejoin="round" stroke-miterlimit="10" stroke-width="1.833" d="M157.029 67.71c-2.531 1.085-5.335.904-5.335.904-1.82.158-3.38-4.351-2.697-5.136l3.601-5.534-1.899-3.707s5.434-1.536 8.554 2.267c.373.456.861.807 1.387 1.072l.099.05c2.814 1.398 6.018 1.704 9.098 1.082 7.837-1.582 15.268-1.486 23.547 2.4 8.274 3.888 16.092-2.44 15.126-8.138-.861-5.042 3.865-8.228 7.324-5.425m-54.909 34.358c.651-2.394 9.213-3.958 9.213-3.958s3.503-1.303 1.547-4.888"/><path stroke="#FF9353" stroke-linecap="round" stroke-linejoin="round" stroke-miterlimit="10" stroke-width="1.833" d="M163.366 64.997c-1.674 1.99-4.224 5.212-.477 9.938 0 0-7.331 3.095-6.517 8.716 0 0 .392 2.687 2.606 2.606m10.03-3.041c-1.254 7.871 2.589 6.57 3.274 6.143 1.246-.778 2.005-10.693 4.288-12.273 1.728-1.198 8.862-.328 8.862-.328m-.212-2.982c.098 1.89.817 3.691 1.881 5.257.718 1.056 1.956 2.517 1.577 3.239-4.86 9.223.675 7.62 1.175 6.691 3.459-6.42 6.646-4.453 5.042-11.414 0 0 5.719-1.965 5.99-8.656"/><path stroke="#FF9353" stroke-linecap="round" stroke-linejoin="round" stroke-miterlimit="10" stroke-width="1.833" d="M195.756 78.398s2.568 3.477 8.418 2.922c0 0-3.609 7.338 0 8.269 2.08.536 5.124-12.11 5.124-12.11s-2.894-2.658-3.888-4.737"/></g><defs><linearGradient id="b" x1="127.416" x2="148.974" y1="-25.468" y2="115.132" gradientUnits="userSpaceOnUse"><stop offset=".011" stop-color="#DCFDEE"/><stop offset=".381" stop-color="#E8F1EE"/><stop offset="1" stop-color="#FFDBED"/></linearGradient><clipPath id="a"><path fill="#fff" d="M0 0h312v160H0z"/></clipPath></defs></svg>