<svg xmlns="http://www.w3.org/2000/svg" width="312" height="160" fill="none"><path fill="url(#a)" d="M258.593 49.963c-16.137-14.9-41.321-16.955-59.955-6.167-5.302 3.07-11.721 4.099-17.88 2.871-14.576-2.905-29.825-.92-42.812 5.406-8.731 4.253-19.366 3.514-27.513-1.587-5.409-3.386-11.69-5.813-18.591-6.954C66.241 39.297 41.35 54.538 36.429 77.48c-5.033 23.463 2.193 53.425 38.42 59.217a52.762 52.762 0 0 0 18.65-.338c9.669-1.926 19.771-7.734 26.01-.832 3.938 4.357 8.687 8.246 14.203 11.477 28.508 16.695 66.697 9.487 85.298-16.099l.059-.081c3.407-4.704 8.705-8.057 14.833-9.168 8.937-1.619 17.456-5.555 24.363-11.81 18.182-16.468 18.334-43.26.328-59.883Z"/><path fill="#97FFD2" d="M219.375 150.69a2.3 2.3 0 0 1-2.305-2.295 2.762 2.762 0 0 0-2.765-2.754 2.3 2.3 0 0 1-2.305-2.296 2.3 2.3 0 0 1 2.305-2.295 2.763 2.763 0 0 0 2.765-2.755 2.3 2.3 0 0 1 2.305-2.295 2.3 2.3 0 0 1 2.305 2.295 2.763 2.763 0 0 0 2.765 2.755 2.3 2.3 0 0 1 2.305 2.295 2.3 2.3 0 0 1-2.305 2.296 2.762 2.762 0 0 0-2.765 2.754 2.3 2.3 0 0 1-2.305 2.295Z"/><path fill="#6583FE" d="M268.375 68.69a2.3 2.3 0 0 1-2.304-2.295 2.763 2.763 0 0 0-2.766-2.754A2.3 2.3 0 0 1 261 61.345a2.3 2.3 0 0 1 2.305-2.295 2.763 2.763 0 0 0 2.766-2.755A2.3 2.3 0 0 1 268.375 54a2.3 2.3 0 0 1 2.305 2.295 2.763 2.763 0 0 0 2.765 2.755 2.3 2.3 0 0 1 2.305 2.295 2.3 2.3 0 0 1-2.305 2.296 2.763 2.763 0 0 0-2.765 2.754 2.3 2.3 0 0 1-2.305 2.295Z"/><path fill="#FF7EB8" d="M35.375 51.69c-.59 0-1.18-.224-1.63-.672l-5.07-5.05c-.9-.897-.9-2.35 0-3.246l5.07-5.05c.9-.896 2.36-.896 3.26 0l5.07 5.05c.9.896.9 2.35 0 3.246l-5.07 5.05c-.45.448-1.04.672-1.63.672Zm-1.811-7.345 1.81 1.803 1.812-1.803-1.811-1.804-1.811 1.804ZM46.658 38.119c-.59 0-1.18-.224-1.63-.672l-5.07-5.05c-.9-.897-.9-2.35 0-3.246l5.07-5.05c.9-.896 2.36-.896 3.26 0l5.07 5.05c.9.896.9 2.35 0 3.246l-5.07 5.05c-.45.447-1.04.672-1.63.672Zm-1.81-7.346 1.81 1.804 1.811-1.804-1.81-1.803-1.812 1.803Z"/><path fill="#fff" d="M70.5 56.795h106.504c11.318 0 20.496 3.205 20.496 7.16v52.987c0 3.954-9.175 7.16-20.496 7.16H70.5V56.795Z"/><mask id="b" width="128" height="69" x="70" y="56" maskUnits="userSpaceOnUse" style="mask-type:alpha"><path fill="#fff" d="M70.5 56.795h106.504c11.318 0 20.496 3.205 20.496 7.16v52.987c0 3.954-9.175 7.16-20.496 7.16H70.5V56.795Z"/></mask><g mask="url(#b)"><path fill="#EECAFF" d="M112.577 61.773v56.954c0 .427-1.295.773-2.894.773H39.927V61h69.757c1.598 0 2.893.346 2.893.773Z"/><path fill="#FDDCEE" d="M171.598 61.773v56.954c0 .427-.982.773-2.193.773h-52.828V61h52.829c1.21 0 2.192.346 2.192.773Z"/><path fill="#FF5BA8" d="M139.313 67.697c0-.968 1.129-1.752 2.521-1.752 1.393 0 2.522.784 2.522 1.752s-1.129 1.753-2.522 1.753c-1.392 0-2.521-.785-2.521-1.753ZM131.686 67.697c0-.968 1.129-1.752 2.521-1.752s2.521.784 2.521 1.752-1.129 1.753-2.521 1.753-2.521-.785-2.521-1.753ZM124.059 67.697c0-.968 1.129-1.752 2.521-1.752s2.521.784 2.521 1.752-1.129 1.753-2.521 1.753-2.521-.785-2.521-1.753Z"/><path fill="#CBCAFF" d="M248.248 61.773v56.954c0 .427-1.296.773-2.895.773h-69.755V61h69.756c1.598 0 2.894.346 2.894.773Z"/><path fill="#FF86BF" d="M192.182 66.697c0-.968.781-1.752 1.745-1.752a1.75 1.75 0 0 1 1.746 1.752 1.75 1.75 0 0 1-1.746 1.753 1.749 1.749 0 0 1-1.745-1.753ZM186.901 66.697a1.75 1.75 0 0 1 1.745-1.752 1.75 1.75 0 0 1 1.746 1.752 1.75 1.75 0 0 1-1.746 1.753 1.75 1.75 0 0 1-1.745-1.753ZM181.62 66.697a1.75 1.75 0 0 1 1.746-1.752 1.75 1.75 0 0 1 1.746 1.752 1.75 1.75 0 0 1-1.746 1.753 1.75 1.75 0 0 1-1.746-1.753Z"/></g><path fill="#B7C5FF" d="m78.849 104.119-8.356 3.333V73.381l8.356 3.332c1.644.483 2.757 1.864 2.757 3.422v20.562c0 1.558-1.113 2.939-2.757 3.422Z"/><path stroke="#2626BC" stroke-width="3" d="M69 72.051V65c0-5.523 4.477-10 10-10h110.5c5.523 0 10 4.477 10 10v50c0 5.523-4.477 10-10 10H79c-5.523 0-10-4.477-10-10v-6.603m0-36.346 6.729 3.14a10 10 0 0 1 5.771 9.062v11.942a10 10 0 0 1-5.771 9.062L69 108.397m0-36.346v36.346"/><path fill="#E3EBFF" d="M103 31a4 4 0 0 1 4-4h132a4 4 0 0 1 4 4v62a4 4 0 0 1-4 4H107a4 4 0 0 1-4-4V31Z"/><path fill="#FE2C8F" d="M158 49.183v25.633c0 2.416 2.609 3.95 4.744 2.788l23.591-12.816c2.22-1.206 2.22-4.37 0-5.576l-23.591-12.817c-2.135-1.16-4.744.373-4.744 2.788Z"/><path stroke="#2626BC" stroke-width="3" d="M104.5 31a2.5 2.5 0 0 1 2.5-2.5h132a2.5 2.5 0 0 1 2.5 2.5v62a2.5 2.5 0 0 1-2.5 2.5H107a2.5 2.5 0 0 1-2.5-2.5V31Z"/><mask id="c" width="36" height="36" x="223" y="77" maskUnits="userSpaceOnUse" style="mask-type:alpha"><path fill="#02FFB3" d="M240.638 112.276c9.741 0 17.638-7.897 17.638-17.638 0-9.741-7.897-17.638-17.638-17.638C230.897 77 223 84.897 223 94.638c0 9.741 7.897 17.638 17.638 17.638Z"/></mask><g mask="url(#c)"><path fill="#FCDCEF" d="M222.47 76.703h35.965v35.965H222.47V76.703Z"/><path fill="#01ECA5" d="m255.623 118.729 4.067-14.823a26.053 26.053 0 0 0-7.89-3.662c-10.744-2.947-21.759 1.275-27.966 9.764l31.789 8.721Z"/><path fill="#2626BC" d="M240.993 95.125c-.229.153-.467.29-.714.412v5.749a.715.715 0 1 0 1.428 0v-5.75a6.427 6.427 0 0 1-.714-.41Z"/><path fill="#2626BC" d="m237.506 95.4 2.733.455a1 1 0 0 0 .407-.017l1.837-.459c.121-.03.236-.083.338-.156l3.316-2.368a1 1 0 0 0 .419-.814v-2.654a1 1 0 0 0-.684-.948l-2.65-.883-3.227-.922a.999.999 0 0 0-1.074.361l-1.212 1.615a.99.99 0 0 1-.092.107l-1.88 1.879a1.001 1.001 0 0 0-.292.707v1.475c0 .216.07.427.2.6l1.226 1.635a1 1 0 0 0 .635.386Z"/><path fill="#FF7EB8" d="M247.256 86.164a6.784 6.784 0 0 0-12.516 0 6.46 6.46 0 0 0-3.74 5.82c-.01 3.465 2.8 6.356 6.261 6.445a6.398 6.398 0 0 0 3.023-.67v-3.174l-3.89-1.944a.714.714 0 1 1 .639-1.278l3.251 1.626v-4.558a.714.714 0 1 1 1.428 0v2.416l3.252-1.627a.709.709 0 0 1 .787.1.713.713 0 0 1-.148 1.179l-3.891 1.944v5.316a6.385 6.385 0 0 0 2.857.67h.166c3.462-.09 6.271-2.978 6.261-6.443a6.454 6.454 0 0 0-3.74-5.822Z"/></g><rect width="38.276" height="38.276" x="221.5" y="75.5" stroke="#2626BC" stroke-width="3" rx="19.138"/><defs><linearGradient id="a" x1="21.148" x2="278.254" y1="90.287" y2="101.645" gradientUnits="userSpaceOnUse"><stop offset=".049" stop-color="#FFDBED"/><stop offset=".999" stop-color="#D2DEFF"/></linearGradient></defs></svg>