<svg width="228" height="234" viewBox="0 0 228 234" fill="none" xmlns="http://www.w3.org/2000/svg">
<g clip-path="url(#clip0)">
<path d="M141.714 40.8371C131.92 16.7658 108.227 -0.169075 80.5971 0.00139751C45.349 0.218487 16.3677 28.6499 15.5126 63.888C15.0908 81.2734 21.444 97.1694 32.1184 109.126C40.6279 118.658 44.8984 131.212 44.4678 143.983C44.4107 145.681 44.402 147.39 44.4441 149.111C45.5702 195.454 85.1596 234.028 131.516 234C179.565 233.971 218.508 195.011 218.508 146.955C218.508 111.73 197.583 81.395 167.486 67.6955C155.755 62.356 146.571 52.7748 141.714 40.8371Z" fill="url(#paint0_linear)"/>
<path opacity="0.1" d="M208.406 47.2456V177.157C208.406 180.941 205.335 184.012 201.551 184.012H32.4493C28.6651 184.012 25.5938 180.941 25.5938 177.157V47.2456C25.5938 43.4614 28.6651 40.3901 32.4493 40.3901H201.551C205.335 40.3901 208.406 43.4614 208.406 47.2456Z" fill="#2626BC"/>
<path d="M208.406 56.8433V186.754C208.406 190.539 205.335 193.61 201.551 193.61H32.4493C28.6651 193.61 25.5938 190.539 25.5938 186.754V56.8433C25.5938 53.059 28.6651 49.9878 32.4493 49.9878H201.551C205.335 49.9878 208.406 53.059 208.406 56.8433Z" fill="white"/>
<path d="M190.908 193.609H43.0923V181.213C43.0923 180.456 43.7061 179.842 44.4634 179.842H189.537C190.294 179.842 190.908 180.456 190.908 181.213V193.609H190.908Z" fill="#D2DEFF"/>
<path d="M43.0925 72.0029H190.908V81.6573C190.908 82.4146 190.294 83.0284 189.537 83.0284H44.4631C43.7058 83.0284 43.092 82.4146 43.092 81.6573L43.0925 72.0029Z" fill="#D2DEFF"/>
<path d="M208.406 72.0031V56.8429C208.406 53.0568 205.337 49.9874 201.551 49.9874H32.4493C28.6632 49.9874 25.5938 53.0568 25.5938 56.8429V72.0031H208.406Z" fill="#6583FE"/>
<path d="M42.9988 63.3135C41.7365 63.3135 40.7136 62.2902 40.7136 61.0283V60.962C40.7136 59.7002 41.7365 58.6769 42.9988 58.6769C44.2611 58.6769 45.2839 59.7002 45.2839 60.962V61.0283C45.2839 62.2902 44.2611 63.3135 42.9988 63.3135Z" fill="#2626BC"/>
<path d="M51.8306 63.3135C50.5682 63.3135 49.5454 62.2902 49.5454 61.0283V60.962C49.5454 59.7002 50.5682 58.6769 51.8306 58.6769C53.0929 58.6769 54.1157 59.7002 54.1157 60.962V61.0283C54.1157 62.2902 53.0929 63.3135 51.8306 63.3135Z" fill="#2626BC"/>
<path d="M60.6624 63.3135C59.4 63.3135 58.3772 62.2902 58.3772 61.0283V60.962C58.3772 59.7002 59.4 58.6769 60.6624 58.6769C61.9247 58.6769 62.9475 59.7002 62.9475 60.962V61.0283C62.9475 62.2902 61.9247 63.3135 60.6624 63.3135Z" fill="#2626BC"/>
<path d="M201.551 47.7023H32.4493C27.4091 47.7023 23.3087 51.8028 23.3087 56.8429V72.0273C23.3087 73.2892 24.3315 74.3125 25.5938 74.3125C25.6756 74.3125 25.7533 74.2969 25.8328 74.2882H208.406C209.669 74.2882 210.691 73.2649 210.691 72.0031V56.8429C210.691 51.8028 206.591 47.7023 201.551 47.7023ZM32.4493 52.2726H201.551C204.071 52.2726 206.121 54.3228 206.121 56.8429V69.7179H27.879V56.8429C27.8785 54.3224 29.9288 52.2726 32.4493 52.2726Z" fill="#2626BC"/>
<path d="M208.406 82.3047C207.144 82.3047 206.121 83.3279 206.121 84.5898V186.752C206.121 189.272 204.071 191.323 201.551 191.323H32.4493C29.9292 191.323 27.879 189.272 27.879 186.752V84.566C27.879 83.3042 26.8561 82.2809 25.5938 82.2809C24.3315 82.2809 23.3087 83.3042 23.3087 84.566V186.753C23.3087 191.793 27.4091 195.893 32.4493 195.893H201.551C206.591 195.893 210.691 191.793 210.691 186.753V84.5898C210.691 83.3279 209.669 82.3047 208.406 82.3047Z" fill="#2626BC"/>
<path d="M97.7838 130.868H44.4634C43.7061 130.868 43.0923 130.254 43.0923 129.497V92.4095C43.0923 91.6522 43.7061 91.0385 44.4634 91.0385H97.7838C98.5411 91.0385 99.1549 91.6522 99.1549 92.4095V129.497C99.1549 130.254 98.5411 130.868 97.7838 130.868Z" fill="#FF7EB8"/>
<path d="M64.4976 104.846V117.06C64.4976 118.117 65.6433 118.777 66.5574 118.246L77.0678 112.139C77.9772 111.61 77.9772 110.296 77.0678 109.768L66.5574 103.661C65.6433 103.13 64.4976 103.789 64.4976 104.846Z" fill="white"/>
<path d="M108.979 162.598H45.3817C44.1176 162.598 43.0929 161.574 43.0929 160.31C43.0929 159.046 44.1176 158.021 45.3817 158.021H108.979C110.244 158.021 111.268 159.046 111.268 160.31C111.268 161.574 110.244 162.598 108.979 162.598Z" fill="#B7C5FF"/>
<path d="M108.979 145.696H77.7551C76.491 145.696 75.4663 144.671 75.4663 143.407C75.4663 142.143 76.491 141.118 77.7551 141.118H108.979C110.244 141.118 111.268 142.143 111.268 143.407C111.268 144.671 110.244 145.696 108.979 145.696Z" fill="#6583FE"/>
<path d="M108.979 171.678H45.3817C44.1176 171.678 43.0929 170.653 43.0929 169.389C43.0929 168.125 44.1176 167.1 45.3817 167.1H108.979C110.244 167.1 111.268 168.125 111.268 169.389C111.268 170.653 110.244 171.678 108.979 171.678Z" fill="#B7C5FF"/>
<path d="M188.619 112.423H112.413C111.149 112.423 110.124 111.398 110.124 110.134C110.124 108.87 111.149 107.845 112.413 107.845H188.619C189.883 107.845 190.908 108.87 190.908 110.134C190.908 111.398 189.884 112.423 188.619 112.423Z" fill="#B7C5FF"/>
<path d="M161.197 95.6161H112.413C111.149 95.6161 110.124 94.5914 110.124 93.3273C110.124 92.0631 111.149 91.0385 112.413 91.0385H161.197C162.461 91.0385 163.486 92.0631 163.486 93.3273C163.487 94.591 162.462 95.6161 161.197 95.6161Z" fill="#FFA8CF"/>
<path d="M188.619 121.502H112.413C111.149 121.502 110.124 120.478 110.124 119.213C110.124 117.949 111.149 116.925 112.413 116.925H188.619C189.883 116.925 190.908 117.949 190.908 119.213C190.908 120.478 189.884 121.502 188.619 121.502Z" fill="#B7C5FF"/>
<path d="M188.619 130.773H112.413C111.149 130.773 110.124 129.748 110.124 128.484C110.124 127.22 111.149 126.195 112.413 126.195H188.619C189.883 126.195 190.908 127.22 190.908 128.484C190.908 129.748 189.884 130.773 188.619 130.773Z" fill="#B7C5FF"/>
<path d="M189.537 171.678H121.568C120.811 171.678 120.197 171.064 120.197 170.307V142.489C120.197 141.732 120.811 141.118 121.568 141.118H189.537C190.294 141.118 190.908 141.732 190.908 142.489V170.307C190.908 171.064 190.294 171.678 189.537 171.678Z" fill="#6583FE"/>
<path d="M163.281 158.953C164.692 158.953 165.836 157.809 165.836 156.398C165.836 154.987 164.692 153.843 163.281 153.843C161.87 153.843 160.726 154.987 160.726 156.398C160.726 157.809 161.87 158.953 163.281 158.953Z" fill="#D2DEFF"/>
<path d="M155.552 158.953C156.963 158.953 158.107 157.809 158.107 156.398C158.107 154.987 156.963 153.843 155.552 153.843C154.142 153.843 152.998 154.987 152.998 156.398C152.998 157.809 154.142 158.953 155.552 158.953Z" fill="#D2DEFF"/>
<path d="M147.824 158.953C149.235 158.953 150.379 157.809 150.379 156.398C150.379 154.987 149.235 153.843 147.824 153.843C146.413 153.843 145.269 154.987 145.269 156.398C145.269 157.809 146.413 158.953 147.824 158.953Z" fill="#D2DEFF"/>
<path d="M48.7601 217.155C48.154 217.155 47.5727 216.914 47.1445 216.486L42.1089 211.45C41.2163 210.557 41.2163 209.11 42.1089 208.218L47.1445 203.183C47.5732 202.754 48.154 202.514 48.7601 202.514C49.3661 202.514 49.9474 202.755 50.3757 203.183L55.4117 208.218C55.8404 208.647 56.0812 209.228 56.0812 209.834C56.0812 210.441 55.8408 211.022 55.4117 211.45L50.3757 216.486C49.9474 216.914 49.3665 217.155 48.7601 217.155ZM46.9566 209.834L48.7601 211.638L50.564 209.834L48.7601 208.03L46.9566 209.834Z" fill="#6583FE"/>
<path d="M132.074 28.3279C131.468 28.3279 130.887 28.087 130.459 27.6588L125.423 22.6232C124.994 22.1945 124.753 21.6136 124.753 21.0071C124.753 20.4006 124.994 19.8198 125.423 19.3911L130.459 14.3555C131.351 13.4634 132.799 13.4634 133.69 14.3555L138.726 19.3911C139.618 20.2836 139.618 21.7306 138.726 22.6227L133.69 27.6583C133.262 28.087 132.681 28.3279 132.074 28.3279ZM130.27 21.0071L132.074 22.811L133.878 21.0071L132.074 19.2032L130.27 21.0071Z" fill="#6583FE"/>
<path d="M190.908 220.314C190.323 220.314 189.738 220.091 189.292 219.645L184.256 214.609C183.828 214.181 183.587 213.6 183.587 212.993C183.587 212.387 183.827 211.806 184.256 211.377L189.292 206.342C189.721 205.913 190.302 205.673 190.908 205.673C191.514 205.673 192.095 205.913 192.523 206.342L197.559 211.377C198.452 212.27 198.452 213.717 197.559 214.609L192.523 219.645C192.077 220.091 191.492 220.314 190.908 220.314ZM189.104 212.993L190.908 214.797L192.711 212.993L190.908 211.189L189.104 212.993Z" fill="#FF7EB8"/>
<path d="M155.553 33.3634C154.29 33.3634 153.268 32.3401 153.268 31.0782C153.268 29.5618 152.034 28.3278 150.517 28.3278C149.254 28.3278 148.232 27.3045 148.232 26.0426C148.232 24.7808 149.254 23.7575 150.517 23.7575C152.033 23.7575 153.268 22.5235 153.268 21.0071C153.268 19.7452 154.29 18.7219 155.553 18.7219C156.815 18.7219 157.838 19.7452 157.838 21.0071C157.838 22.5235 159.071 23.7575 160.588 23.7575C161.851 23.7575 162.873 24.7808 162.873 26.0426C162.873 27.3045 161.851 28.3278 160.588 28.3278C159.072 28.3278 157.838 29.5618 157.838 31.0782C157.838 32.3401 156.815 33.3634 155.553 33.3634Z" fill="#97FFD2"/>
</g>
<defs>
<linearGradient id="paint0_linear" x1="13.2247" y1="21.502" x2="200.3" y2="219.465" gradientUnits="userSpaceOnUse">
<stop stop-color="#FFDBED"/>
<stop offset="1" stop-color="#DCFDEE"/>
</linearGradient>
<clipPath id="clip0">
<rect width="228" height="234" fill="white"/>
</clipPath>
</defs>
</svg>
