<svg width="228" height="234" viewBox="0 0 228 234" fill="none" xmlns="http://www.w3.org/2000/svg">
<g clip-path="url(#clip0)">
<path d="M167.906 81.0287C167.825 81.0283 167.743 81.0278 167.661 81.0278C154.021 81.0065 141.098 75.1333 132.134 64.8541C118.779 49.5413 99.093 39.894 77.1563 39.9915C37.3406 40.1682 4.4912 73.6201 5.00597 113.433C5.51818 153.024 37.772 184.962 77.4854 184.962C88.7018 184.962 99.322 182.413 108.8 177.863C116.973 173.941 126.711 174.975 133.908 180.486C143.217 187.616 154.852 191.86 167.479 191.882C197.872 191.932 222.822 167.178 222.999 136.785C223.177 106.108 198.541 81.2092 167.906 81.0287Z" fill="url(#paint0_linear)"/>
<path opacity="0.1" d="M123.791 159.575C124.966 159.575 125.919 158.622 125.919 157.446V153.762C125.919 152.586 124.966 151.633 123.791 151.633H123.365V144.67C123.365 142.32 121.458 140.413 119.108 140.413H108.892C106.542 140.413 104.635 142.32 104.635 144.67V151.633H104.209C103.033 151.633 102.08 152.586 102.08 153.762V157.446C102.08 158.622 103.033 159.575 104.209 159.575H104.635V192.403H104.209C103.033 192.403 102.08 193.356 102.08 194.532V198.216C102.08 199.392 103.033 200.345 104.209 200.345H104.635V207.144C104.635 209.498 106.542 211.401 108.892 211.401H119.108C121.458 211.401 123.365 209.498 123.365 207.144V200.345H123.791C124.966 200.345 125.919 199.392 125.919 198.216V194.532C125.919 193.356 124.966 192.403 123.791 192.403H123.365V159.575H123.791Z" fill="#2626BC"/>
<path opacity="0.1" d="M210.44 54.1122H169.776C163.095 29.5732 140.656 11.5286 114 11.5286C87.3435 11.5286 64.9053 29.5732 58.2235 54.1122H17.5597C15.2098 54.1122 13.3027 56.0193 13.3027 58.3692V79.224C13.3027 81.5781 15.2098 83.4809 17.5597 83.4809H57.9399C64.2504 108.568 86.9548 127.142 114 127.142C141.045 127.142 163.75 108.568 170.06 83.4809H210.44C212.79 83.4809 214.697 81.5781 214.697 79.224V58.3692C214.697 56.0193 212.79 54.1122 210.44 54.1122Z" fill="#2626BC"/>
<path d="M114 136.083C145.926 136.083 171.807 110.202 171.807 78.2766C171.807 46.3509 145.926 20.47 114 20.47C82.0743 20.47 56.1934 46.3509 56.1934 78.2766C56.1934 110.202 82.0743 136.083 114 136.083Z" fill="#8399FE"/>
<path d="M214.697 67.3104V88.1652C214.697 90.5193 212.79 92.4222 210.44 92.4222H17.5597C15.2098 92.4222 13.3027 90.5193 13.3027 88.1652V67.3104C13.3027 64.9605 15.2098 63.0535 17.5597 63.0535H210.44C212.79 63.0535 214.697 64.9605 214.697 67.3104Z" fill="white"/>
<path d="M168.587 97.3438C170.674 91.3757 171.808 84.9596 171.808 78.2761C171.808 75.1551 171.561 72.0937 171.084 69.1047H56.9155C56.4386 72.0937 56.1917 75.1551 56.1917 78.2761C56.1917 84.96 57.3259 91.3757 59.4127 97.3438H168.587Z" fill="#6583FE"/>
<path d="M171.805 78.2765C171.805 83.1551 171.2 87.897 170.059 92.4222H57.9408C56.8002 87.897 56.1956 83.1551 56.1956 78.2765C56.1956 73.0066 56.9024 67.9023 58.2219 63.054H169.779C171.098 67.9023 171.805 73.0062 171.805 78.2765Z" fill="#FFC4DF"/>
<path d="M42.3065 92.424H17.5614C15.2102 92.424 13.3044 90.5182 13.3044 88.1671V67.3102C13.3044 64.959 15.2102 63.0532 17.5614 63.0532H42.3065V92.424Z" fill="#B7C5FF"/>
<path d="M123.365 153.61V216.085C123.365 218.439 121.458 220.342 119.108 220.342H108.891C106.542 220.342 104.635 218.439 104.635 216.085V153.61C104.635 151.261 106.542 149.354 108.891 149.354H119.108C121.458 149.354 123.365 151.261 123.365 153.61Z" fill="#FF7EB8"/>
<path d="M104.635 165.045H123.365V172.984H104.635V165.045Z" fill="#FF5BA8"/>
<path d="M104.635 205.813H123.365V213.756H104.635V205.813Z" fill="#FF5BA8"/>
<path d="M123.791 168.516H104.209C103.033 168.516 102.081 167.563 102.081 166.388V162.703C102.081 161.528 103.033 160.575 104.209 160.575H123.791C124.966 160.575 125.919 161.528 125.919 162.703V166.388C125.919 167.563 124.966 168.516 123.791 168.516Z" fill="#97FFD2"/>
<path d="M123.791 209.285H104.209C103.033 209.285 102.081 208.333 102.081 207.157V203.473C102.081 202.297 103.033 201.344 104.209 201.344H123.791C124.966 201.344 125.919 202.297 125.919 203.473V207.157C125.919 208.333 124.966 209.285 123.791 209.285Z" fill="#97FFD2"/>
<path d="M96.405 85.6222C95.6305 85.6222 94.9109 85.2003 94.5358 84.511L92.7445 81.2192L90.9533 84.511C90.5475 85.2573 89.7368 85.6887 88.8895 85.6133C88.0431 85.5354 87.3239 84.9618 87.0604 84.1541L83.6537 73.7199C83.2888 72.6027 83.8989 71.4011 85.0166 71.0362C86.1334 70.6726 87.3358 71.2815 87.7003 72.3992L89.5742 78.1391L90.8749 75.7492C91.2475 75.0641 91.9649 74.6379 92.7445 74.6379C93.5241 74.6379 94.2416 75.0641 94.6141 75.7492L95.9149 78.1391L97.7888 72.3992C98.1537 71.2819 99.3561 70.6709 100.472 71.0362C101.59 71.4011 102.2 72.6027 101.835 73.7199L98.4283 84.1541C98.1647 84.9618 97.4456 85.5354 96.5991 85.6133C96.534 85.6193 96.4693 85.6222 96.405 85.6222Z" fill="#FF5BA8"/>
<path d="M117.66 85.6223C116.886 85.6223 116.166 85.2004 115.791 84.511L114 81.2197L112.209 84.5114C111.803 85.2578 110.994 85.6892 110.145 85.6138C109.299 85.5359 108.579 84.9623 108.316 84.1546L104.909 73.7204C104.544 72.6032 105.154 71.4016 106.272 71.0367C107.39 70.6731 108.591 71.282 108.956 72.3997L110.83 78.1396L112.13 75.7497C112.503 75.0646 113.22 74.6384 114 74.6384C114.78 74.6384 115.497 75.0646 115.87 75.7497L117.17 78.1396L119.044 72.3997C119.409 71.2824 120.612 70.6714 121.728 71.0367C122.845 71.4016 123.456 72.6032 123.09 73.7204L119.684 84.1546C119.42 84.9623 118.701 85.5359 117.855 85.6138C117.789 85.6193 117.725 85.6223 117.66 85.6223Z" fill="#FF5BA8"/>
<path d="M138.916 85.6222C138.141 85.6222 137.422 85.2003 137.047 84.511L135.255 81.2192L133.464 84.511C133.058 85.2573 132.249 85.6887 131.4 85.6133C130.554 85.5354 129.835 84.9618 129.571 84.1541L126.165 73.7199C125.8 72.6027 126.41 71.4011 127.527 71.0362C128.645 70.6726 129.847 71.2815 130.211 72.3992L132.085 78.1391L133.386 75.7492C133.758 75.0641 134.476 74.6379 135.255 74.6379C136.035 74.6379 136.752 75.0641 137.125 75.7492L138.426 78.1391L140.3 72.3992C140.665 71.2819 141.867 70.6709 142.983 71.0362C144.101 71.4011 144.711 72.6027 144.346 73.7199L140.94 84.1541C140.676 84.9618 139.957 85.5354 139.11 85.6133C139.045 85.6193 138.98 85.6222 138.916 85.6222Z" fill="#FF5BA8"/>
<path d="M114 125.046C130.133 125.046 144.919 116.894 153.554 103.24C154.183 102.246 153.886 100.931 152.892 100.303C151.897 99.6747 150.583 99.9714 149.955 100.965C142.106 113.378 128.664 120.788 114 120.788C99.3355 120.788 85.894 113.378 78.0443 100.964C77.4163 99.971 76.1024 99.6747 75.1073 100.303C74.114 100.931 73.8176 102.246 74.4461 103.239C83.0805 116.895 97.8666 125.046 114 125.046Z" fill="#2626BC"/>
<path d="M153.554 53.313C144.919 39.6587 130.132 31.5071 114 31.5071C97.8676 31.5071 83.0807 39.6591 74.4462 53.313C73.8174 54.3068 74.1141 55.6221 75.1075 56.2501C76.1013 56.8777 77.4165 56.5822 78.0445 55.5888C85.8947 43.1756 99.3361 35.7645 114 35.7645C128.664 35.7645 142.106 43.1752 149.956 55.5888C150.36 56.2292 151.051 56.5801 151.757 56.5801C152.145 56.5801 152.539 56.4732 152.893 56.2501C153.886 55.6216 154.183 54.3068 153.554 53.313Z" fill="#2626BC"/>
<path d="M210.439 60.9243H171.371C163.912 36.3103 141.016 18.3411 114 18.3411C86.9838 18.3411 64.0882 36.3103 56.6294 60.9243H17.5614C14.0402 60.9243 11.1755 63.7894 11.1755 67.3102V88.1671C11.1755 91.6883 14.0406 94.5529 17.5614 94.5529H56.3118C63.2362 119.063 85.3973 137.241 111.871 138.17V147.225H108.892C105.371 147.225 102.506 150.09 102.506 153.611V158.804C101.004 159.462 99.9518 160.961 99.9518 162.703V166.387C99.9518 168.129 101.004 169.628 102.506 170.287V199.573C101.004 200.232 99.9518 201.731 99.9518 203.472V207.157C99.9518 208.899 101.004 210.398 102.506 211.056V216.086C102.506 219.607 105.371 222.472 108.892 222.472H119.108C122.629 222.472 125.494 219.607 125.494 216.086V211.056C126.996 210.397 128.048 208.899 128.048 207.157V203.472C128.048 201.731 126.996 200.231 125.494 199.573V180.242C125.494 179.066 124.541 178.113 123.365 178.113C122.189 178.113 121.236 179.066 121.236 180.242V199.216H106.764V170.645H123.791C126.139 170.645 128.048 168.736 128.048 166.388V162.703C128.048 160.962 126.996 159.462 125.494 158.804V153.611C125.494 150.09 122.629 147.225 119.108 147.225H116.129V138.171C142.603 137.241 164.764 119.063 171.689 94.5534H210.439C213.96 94.5534 216.825 91.6883 216.825 88.1675V67.3106C216.824 63.789 213.959 60.9243 210.439 60.9243ZM123.79 203.472L123.793 207.156L104.21 207.157L104.209 203.473L123.79 203.472ZM119.108 218.215H108.892C107.718 218.215 106.764 217.261 106.764 216.087V211.415H121.236V216.087C121.236 217.26 120.282 218.215 119.108 218.215ZM104.21 166.388L104.209 162.704L123.79 162.703L123.793 166.387L104.21 166.388ZM121.236 153.611V158.446H106.764V153.611C106.764 152.437 107.718 151.482 108.892 151.482H119.108C120.282 151.482 121.236 152.437 121.236 153.611ZM114 22.5989C138.644 22.5989 159.596 38.6947 166.905 60.9243H61.0946C68.4039 38.6947 89.3558 22.5989 114 22.5989ZM15.4334 88.1671V67.3102C15.4334 66.1367 16.388 65.1821 17.5614 65.1821H40.1776V90.2951H17.5614C16.388 90.2951 15.4334 89.3405 15.4334 88.1671ZM44.4354 90.2951V65.1821H55.5096C54.5661 69.3986 54.0649 73.7799 54.0649 78.277C54.0649 82.3922 54.4822 86.4116 55.2758 90.2955L44.4354 90.2951ZM114 133.954C83.2995 133.954 58.3223 108.978 58.3223 78.2766C58.3223 73.7671 58.8652 69.3829 59.8815 65.1817H168.118C169.135 69.3829 169.677 73.7671 169.677 78.2766C169.677 82.402 169.222 86.4231 168.367 90.2951H69.6298C68.4538 90.2951 67.5009 91.248 67.5009 92.424C67.5009 93.6 68.4538 94.5529 69.6298 94.5529H167.249C160.27 117.338 139.04 133.954 114 133.954ZM212.567 88.1671C212.567 89.3405 211.612 90.2951 210.439 90.2951H172.724C173.518 86.4111 173.935 82.3918 173.935 78.2766C173.935 73.7795 173.434 69.3982 172.49 65.1817H210.439C211.612 65.1817 212.567 66.1363 212.567 67.3097V88.1671Z" fill="#2626BC"/>
<path d="M34.2896 71.7415C31.7298 69.1809 27.5643 69.1809 25.0046 71.7415C22.9719 73.7738 22.5593 76.8164 23.7545 79.2659L20.7378 82.2826C19.9062 83.1137 19.9062 84.4617 20.7378 85.2929C21.1534 85.7089 21.6984 85.9166 22.2429 85.9166C22.7875 85.9166 23.3329 85.7089 23.7481 85.2929L26.7647 82.2762C27.6716 82.7186 28.6582 82.9464 29.6468 82.9464C31.3283 82.9464 33.0092 82.3064 34.2891 81.0261C36.8498 78.4667 36.8498 74.3013 34.2896 71.7415ZM31.2793 78.0158C30.3796 78.9155 28.9149 78.9155 28.0153 78.0158C27.1156 77.1162 27.1156 75.6515 28.0153 74.7518C28.4653 74.3018 29.0563 74.0769 29.6473 74.0769C30.2383 74.0769 30.8292 74.3018 31.2793 74.7518C32.179 75.6515 32.179 77.1162 31.2793 78.0158Z" fill="#2626BC"/>
<path d="M167.123 150.106C165.947 150.106 164.994 149.153 164.994 147.977C164.994 146.569 163.849 145.424 162.442 145.424C161.266 145.424 160.313 144.471 160.313 143.295C160.313 142.119 161.266 141.167 162.442 141.167C163.849 141.167 164.994 140.022 164.994 138.614C164.994 137.438 165.947 136.485 167.123 136.485C168.299 136.485 169.252 137.438 169.252 138.614C169.252 140.022 170.397 141.167 171.805 141.167C172.981 141.167 173.933 142.119 173.933 143.295C173.933 144.471 172.981 145.424 171.805 145.424C170.397 145.424 169.252 146.569 169.252 147.977C169.252 149.153 168.299 150.106 167.123 150.106Z" fill="#FF7EB8"/>
<path d="M180.576 50.8537C179.4 50.8537 178.447 49.9008 178.447 48.7247C178.447 47.3171 177.302 46.1722 175.895 46.1722C174.719 46.1722 173.766 45.2193 173.766 44.0433C173.766 42.8673 174.719 41.9144 175.895 41.9144C177.302 41.9144 178.447 40.7694 178.447 39.3618C178.447 38.1858 179.4 37.2329 180.576 37.2329C181.752 37.2329 182.705 38.1858 182.705 39.3618C182.705 40.7694 183.85 41.9144 185.257 41.9144C186.433 41.9144 187.386 42.8673 187.386 44.0433C187.386 45.2193 186.433 46.1722 185.257 46.1722C183.85 46.1722 182.705 47.3171 182.705 48.7247C182.705 49.9008 181.752 50.8537 180.576 50.8537Z" fill="#97FFD2"/>
<path d="M42.3065 119.32C41.1305 119.32 40.1776 118.367 40.1776 117.191C40.1776 115.784 39.0326 114.639 37.625 114.639C36.449 114.639 35.4961 113.686 35.4961 112.51C35.4961 111.334 36.449 110.381 37.625 110.381C39.0326 110.381 40.1776 109.236 40.1776 107.828C40.1776 106.652 41.1305 105.699 42.3065 105.699C43.4825 105.699 44.4354 106.652 44.4354 107.828C44.4354 109.236 45.5803 110.381 46.9879 110.381C48.1639 110.381 49.1168 111.334 49.1168 112.51C49.1168 113.686 48.1639 114.639 46.9879 114.639C45.5803 114.639 44.4354 115.784 44.4354 117.191C44.4354 118.367 43.4825 119.32 42.3065 119.32Z" fill="#FF7EB8"/>
<path d="M56.1933 146.375C55.6487 146.375 55.1033 146.167 54.6881 145.751L50.0071 141.07C49.1755 140.239 49.1755 138.891 50.0071 138.06L54.6881 133.379C55.5188 132.547 56.8677 132.547 57.6984 133.379L62.3794 138.06C63.211 138.891 63.211 140.239 62.3794 141.07L57.6984 145.751C57.2833 146.166 56.7383 146.375 56.1933 146.375ZM54.5229 139.565L56.1933 141.235L57.8636 139.565L56.1933 137.894L54.5229 139.565Z" fill="#6583FE"/>
</g>
<defs>
<linearGradient id="paint0_linear" x1="262.827" y1="170.801" x2="-9.67307" y2="115.603" gradientUnits="userSpaceOnUse">
<stop offset="0.0485" stop-color="#EEE6FF"/>
<stop offset="0.9993" stop-color="#CBEDEF"/>
</linearGradient>
<clipPath id="clip0">
<rect width="218" height="218" fill="white" transform="translate(5 8)"/>
</clipPath>
</defs>
</svg>
