<svg width="228" height="234" viewBox="0 0 228 234" fill="none" xmlns="http://www.w3.org/2000/svg">
<path d="M167.412 82.4305C167.331 82.4301 167.249 82.4296 167.168 82.4296C153.654 82.4085 140.85 76.5892 131.967 66.4043C118.735 51.232 99.2297 41.6732 77.4943 41.7698C38.0439 41.9448 5.49587 75.0899 6.00591 114.537C6.51343 153.766 38.4713 185.41 77.8204 185.41C88.9338 185.41 99.4567 182.884 108.848 178.377C116.945 174.49 126.594 175.515 133.725 180.976C142.949 188.04 154.477 192.245 166.988 192.266C197.103 192.317 221.824 167.789 221.999 137.675C222.175 107.279 197.766 82.6094 167.412 82.4305Z" fill="url(#paint0_linear)"/>
<path opacity="0.1" d="M198.375 49.0588V168.977C198.375 172.47 195.54 175.305 192.047 175.305H35.9531C32.46 175.305 29.625 172.47 29.625 168.977V49.0588C29.625 45.5657 32.46 42.7307 35.9531 42.7307H192.047C195.54 42.7307 198.375 45.5657 198.375 49.0588Z" fill="#2626BC"/>
<path d="M198.375 57.9182V177.836C198.375 181.329 195.54 184.164 192.047 184.164H35.9531C32.46 184.164 29.625 181.329 29.625 177.836V57.9182C29.625 54.4251 32.46 51.5901 35.9531 51.5901H192.047C195.54 51.5901 198.375 54.4251 198.375 57.9182Z" fill="white"/>
<path d="M44.9965 71.9126H183.003V117.544H44.9965V71.9126Z" fill="#D2DEFF"/>
<path d="M151.995 140.257H74.0054C72.8978 140.257 72 139.359 72 138.252V84.0054C72 82.8978 72.8978 82 74.0054 82H151.995C153.102 82 154 82.8978 154 84.0054V138.252C154 139.359 153.102 140.257 151.995 140.257Z" fill="#FF7EB8"/>
<path d="M103.308 102.196V120.06C103.308 121.607 104.984 122.571 106.321 121.794L121.694 112.862C123.025 112.089 123.025 110.168 121.694 109.394L106.321 100.462C104.984 99.6852 103.308 100.65 103.308 102.196Z" fill="white"/>
<path d="M152.429 175H74.5706C73.7031 175 73 174.518 73 173.923V152.077C73 151.482 73.7031 151 74.5706 151H152.429C153.297 151 154 151.482 154 152.077V173.923C154 174.518 153.296 175 152.429 175Z" fill="#6583FE"/>
<path d="M198.375 71.9127V57.9187C198.375 54.4239 195.542 51.5906 192.047 51.5906H35.9531C32.4583 51.5906 29.625 54.4239 29.625 57.9187V71.9127H198.375Z" fill="#6583FE"/>
<path d="M114.567 171.291L127.768 206.814C128.324 208.309 130.375 208.468 131.155 207.077L138.658 193.692C138.826 193.392 139.075 193.143 139.375 192.975L152.76 185.472C154.152 184.692 153.992 182.64 152.497 182.085L116.974 168.884C115.472 168.326 114.01 169.789 114.567 171.291Z" fill="#FFA8CF"/>
<path d="M43.5814 61.7205V61.7821C43.5814 62.9473 44.5256 63.8914 45.6908 63.8914C46.856 63.8914 47.8002 62.9473 47.8002 61.7821V61.7205C47.8002 60.5552 46.856 59.6111 45.6908 59.6111C44.5256 59.6111 43.5814 60.5552 43.5814 61.7205Z" fill="#2626BC"/>
<path d="M51.7341 61.7205V61.7821C51.7341 62.9473 52.6783 63.8914 53.8435 63.8914C55.0087 63.8914 55.9529 62.9473 55.9529 61.7821V61.7205C55.9529 60.5552 55.0087 59.6111 53.8435 59.6111C52.6783 59.6111 51.7341 60.5552 51.7341 61.7205Z" fill="#2626BC"/>
<path d="M59.8865 61.7205V61.7821C59.8865 62.9473 60.8306 63.8914 61.9958 63.8914C63.1611 63.8914 64.1052 62.9473 64.1052 61.7821V61.7205C64.1052 60.5552 63.1611 59.6111 61.9958 59.6111C60.8306 59.6111 59.8865 60.5552 59.8865 61.7205Z" fill="#2626BC"/>
<path d="M192.047 49.4807H35.9531C31.3007 49.4807 27.5156 53.2658 27.5156 57.9182V71.9122C27.5156 73.0774 28.4598 74.0216 29.625 74.0216H183.891C185.056 74.0216 186 73.0774 186 71.9122C186 70.747 185.056 69.8028 183.891 69.8028H31.7344V57.9182C31.7344 55.592 33.6269 53.6995 35.9531 53.6995H192.047C194.373 53.6995 196.266 55.592 196.266 57.9182V177.835C196.266 180.161 194.373 182.054 192.047 182.054H155.401C154.961 181.17 154.205 180.469 153.231 180.108L117.708 166.907C116.231 166.357 114.621 166.71 113.507 167.824C112.392 168.939 112.041 170.549 112.59 172.026L116.317 182.054H35.9531C33.6269 182.054 31.7344 180.161 31.7344 177.835V83.5311C31.7344 82.3658 30.7902 81.4217 29.625 81.4217C28.4598 81.4217 27.5156 82.3658 27.5156 83.5311V177.835C27.5156 182.488 31.3007 186.273 35.9531 186.273H117.885L125.791 207.549C126.338 209.02 127.649 210.01 129.214 210.131C129.322 210.14 129.428 210.143 129.534 210.143C130.975 210.143 132.281 209.383 132.995 208.109L140.465 194.782L153.792 187.312C154.273 187.043 154.675 186.686 154.996 186.273H192.047C196.699 186.273 200.484 182.488 200.484 177.835V57.9182C200.484 53.2658 196.699 49.4807 192.047 49.4807ZM138.343 191.135C137.703 191.494 137.176 192.022 136.818 192.66L129.566 205.597L116.725 171.042L151.28 183.883L138.343 191.135Z" fill="#2626BC"/>
<path d="M109.39 206.728C108.225 206.728 107.281 205.784 107.281 204.618C107.281 203.219 106.142 202.08 104.743 202.08C103.577 202.08 102.633 201.136 102.633 199.971C102.633 198.806 103.577 197.862 104.743 197.862C106.142 197.862 107.281 196.723 107.281 195.323C107.281 194.158 108.225 193.214 109.39 193.214C110.555 193.214 111.499 194.158 111.499 195.323C111.499 196.723 112.638 197.862 114.037 197.862C115.203 197.862 116.147 198.806 116.147 199.971C116.147 201.136 115.203 202.08 114.037 202.08C112.638 202.08 111.499 203.219 111.499 204.618C111.499 205.784 110.555 206.728 109.39 206.728Z" fill="#97FFD2"/>
<path d="M109.607 36.4415L104.969 31.803C104.146 30.9791 102.809 30.9791 101.986 31.803L97.3477 36.4415C96.9519 36.8372 96.7296 37.3734 96.7296 37.9328C96.7296 38.4922 96.9519 39.0289 97.3477 39.4246L101.986 44.0627C102.398 44.4744 102.938 44.6803 103.477 44.6803C104.017 44.6803 104.557 44.4744 104.969 44.0627L109.607 39.4246C110.003 39.0289 110.225 38.4922 110.225 37.9328C110.225 37.3734 110.003 36.8372 109.607 36.4415ZM103.477 39.5883L101.822 37.9328L103.477 36.2774L105.133 37.9328L103.477 39.5883Z" fill="#FF7EB8"/>
<path d="M83.3845 28.5397C81.9855 28.5397 80.8469 27.4015 80.8469 26.0017C80.8469 24.8365 79.9027 23.8923 78.7375 23.8923C77.5723 23.8923 76.6281 24.8365 76.6281 26.0017C76.6281 27.4011 75.4895 28.5397 74.0897 28.5397C72.9245 28.5397 71.9803 29.4839 71.9803 30.6491C71.9803 31.8143 72.9245 32.7585 74.0897 32.7585C75.4891 32.7585 76.6281 33.8967 76.6281 35.2965C76.6281 36.4617 77.5723 37.4058 78.7375 37.4058C79.9027 37.4058 80.8469 36.4617 80.8469 35.2965C80.8469 33.8971 81.9851 32.7585 83.3845 32.7585C84.5497 32.7585 85.4938 31.8143 85.4938 30.6491C85.4938 29.4839 84.5497 28.5397 83.3845 28.5397Z" fill="#6583FE"/>
<path d="M161.14 36.4415L156.502 31.803C155.679 30.9791 154.342 30.9791 153.519 31.803L148.88 36.4415C148.485 36.8372 148.262 37.3734 148.262 37.9328C148.262 38.4922 148.485 39.0289 148.88 39.4246L153.519 44.0627C153.931 44.4744 154.471 44.6803 155.01 44.6803C155.55 44.6803 156.09 44.4744 156.502 44.0627L161.14 39.4246C161.536 39.0289 161.758 38.4922 161.758 37.9328C161.758 37.3734 161.536 36.8372 161.14 36.4415ZM155.01 39.5883L153.355 37.9328L155.01 36.2774L156.666 37.9328L155.01 39.5883Z" fill="#6583FE"/>
<defs>
<linearGradient id="paint0_linear" x1="268.552" y1="128.789" x2="13.4483" y2="94.651" gradientUnits="userSpaceOnUse">
<stop stop-color="#FFDBED"/>
<stop offset="1" stop-color="#DCFDEE"/>
</linearGradient>
</defs>
</svg>
