<svg width="228" height="234" viewBox="0 0 228 234" fill="none" xmlns="http://www.w3.org/2000/svg">
<g clip-path="url(#clip0)">
<g clip-path="url(#clip1)">
<path d="M224.988 133.978C219.398 117.619 206.961 105.543 191.972 99.8512C184.206 96.9023 179.046 89.5208 178.932 81.2148C178.93 81.0333 178.927 80.8513 178.922 80.6694C178.21 50.1443 152.696 25.6853 122.167 26.2094C104.162 26.5186 88.2363 35.3577 78.2552 48.8591C69.6599 60.486 56.2814 67.7488 41.8228 67.7413C41.3984 67.7413 40.9735 67.7455 40.5467 67.755C11.2812 68.395 -13.6041 93.5043 -13.9945 122.774C-14.4105 153.937 10.7263 179.329 41.794 179.329C65.8744 179.329 86.3887 164.073 94.205 142.7C96.2502 137.107 102.312 134.11 108.046 135.718C108.117 135.738 108.189 135.758 108.261 135.778C113.507 137.226 116.985 142.225 116.556 147.65C115.981 154.921 116.831 162.423 119.296 169.769C128.996 198.665 160.506 214.522 189.483 205.067C219.123 195.394 235.037 163.386 224.988 133.978Z" fill="url(#paint0_linear)"/>
<path opacity="0.1" d="M203.895 63.1521C203.895 42.3703 187.048 25.5229 166.266 25.5229C150.417 25.5229 136.867 35.3258 131.322 49.1945H18.1135C13.6908 49.1945 10.1057 52.7796 10.1057 57.2018V161.586C10.1057 166.009 13.6908 169.594 18.1135 169.594H163.903C168.326 169.594 171.911 166.009 171.911 161.586V100.358C190.014 97.6347 203.895 82.0153 203.895 63.1521Z" fill="#2626BC"/>
<path d="M115.029 210.316H66.9871L73.2483 185.494L76.5943 172.235H105.422L108.768 185.494L115.029 210.316Z" fill="#9FB0FE"/>
<path d="M108.768 185.494H73.2484L76.5943 172.235H105.422L108.768 185.494Z" fill="#8399FE"/>
<path d="M115.03 212.677H66.9856C66.2567 212.677 65.569 212.341 65.1214 211.766C64.6738 211.191 64.5159 210.442 64.6946 209.736L72.2557 179.771C72.5747 178.505 73.8594 177.739 75.1252 178.057C76.3905 178.377 77.1576 179.662 76.8381 180.927L70.0191 207.95H111.997L105.117 180.683C104.797 179.418 105.564 178.132 106.83 177.813C108.096 177.495 109.38 178.261 109.699 179.527L117.322 209.736C117.5 210.443 117.342 211.192 116.895 211.767C116.447 212.341 115.759 212.677 115.03 212.677Z" fill="#2626BC"/>
<path d="M163.903 179.52H18.1135C13.6908 179.52 10.1057 175.935 10.1057 171.512V67.1281C10.1057 62.7055 13.6908 59.1204 18.1135 59.1204H163.903C168.326 59.1204 171.91 62.7055 171.91 67.1281V171.512C171.91 175.935 168.325 179.52 163.903 179.52Z" fill="white"/>
<path d="M171.909 67.1262V116.733C170.067 117.009 168.186 117.154 166.267 117.154C145.483 117.154 128.635 100.306 128.635 79.5268C128.635 72.0045 130.839 64.9988 134.644 59.1204H163.903C168.326 59.1199 171.909 62.7073 171.909 67.1262Z" fill="#D2DEFF"/>
<path d="M113.208 65.8015H151.961V158.175H113.208V65.8015Z" fill="#FFDBED"/>
<path d="M151.962 65.8015V114.336C138.27 108.708 128.635 95.2395 128.635 79.527C128.635 74.6827 129.549 70.0559 131.217 65.8015H151.962Z" fill="#FFA8CF"/>
<path d="M158.45 158.176H106.72V119.932C106.72 119.131 107.37 118.481 108.171 118.481H157C157.801 118.481 158.451 119.131 158.451 119.932V158.176H158.45Z" fill="#D2DEFF"/>
<path d="M158.45 130.078H106.72V119.933C106.72 119.131 107.37 118.482 108.171 118.482H157C157.801 118.482 158.451 119.131 158.451 119.933V130.078H158.45Z" fill="#6583FE"/>
<path d="M171.91 79.5245V67.1281C171.91 62.7055 168.325 59.1204 163.903 59.1204H18.1135C13.6913 59.1204 10.1057 62.7055 10.1057 67.1281V79.5245H171.91Z" fill="#6583FE"/>
<path d="M128.635 81.8877H10.1057C8.80024 81.8877 7.74243 80.8294 7.74243 79.5244C7.74243 78.2194 8.80024 77.1611 10.1057 77.1611H128.635C129.94 77.1611 130.998 78.2194 130.998 79.5244C130.998 80.8294 129.94 81.8877 128.635 81.8877Z" fill="#2626BC"/>
<path d="M10.1057 158.176V171.512C10.1057 175.935 13.6908 179.519 18.1135 179.519H163.903C168.325 179.519 171.91 175.934 171.91 171.512V158.176H10.1057Z" fill="#B7C5FF"/>
<path d="M123.172 212.677H58.8446C57.5391 212.677 56.4813 211.619 56.4813 210.314C56.4813 209.009 57.5391 207.95 58.8446 207.95H123.172C124.477 207.95 125.535 209.009 125.535 210.314C125.535 211.619 124.477 212.677 123.172 212.677Z" fill="#2626BC"/>
<path d="M26.2361 71.7165C24.9306 71.7165 23.8728 70.6582 23.8728 69.3532V69.2917C23.8728 67.9867 24.9306 66.9285 26.2361 66.9285C27.5416 66.9285 28.5994 67.9867 28.5994 69.2917V69.3532C28.5994 70.6582 27.5416 71.7165 26.2361 71.7165Z" fill="#2626BC"/>
<path d="M34.4215 71.7165C33.116 71.7165 32.0582 70.6582 32.0582 69.3532V69.2917C32.0582 67.9867 33.116 66.9285 34.4215 66.9285C35.727 66.9285 36.7848 67.9867 36.7848 69.2917V69.3532C36.7848 70.6582 35.727 71.7165 34.4215 71.7165Z" fill="#2626BC"/>
<path d="M42.6075 71.7165C41.3021 71.7165 40.2443 70.6582 40.2443 69.3532V69.2917C40.2443 67.9867 41.3021 66.9285 42.6075 66.9285C43.913 66.9285 44.9708 67.9867 44.9708 69.2917V69.3532C44.9708 70.6582 43.9125 71.7165 42.6075 71.7165Z" fill="#2626BC"/>
<path d="M163.903 181.883H18.113C12.3948 181.883 7.74243 177.231 7.74243 171.512V158.176C7.74243 156.871 8.80024 155.813 10.1057 155.813H169.547V111.299C169.547 109.994 170.605 108.936 171.91 108.936C173.216 108.936 174.273 109.994 174.273 111.299V171.512C174.273 177.231 169.621 181.883 163.903 181.883ZM12.469 160.539V171.512C12.469 174.624 15.0005 177.156 18.113 177.156H163.902C167.015 177.156 169.546 174.624 169.546 171.512V160.539H12.469Z" fill="#2626BC"/>
<path d="M10.1057 147.225C8.80024 147.225 7.74243 146.166 7.74243 144.861V67.1279C7.74243 61.4092 12.3948 56.7573 18.113 56.7573H118.07C119.375 56.7573 120.433 57.8156 120.433 59.1206C120.433 60.4256 119.375 61.4839 118.07 61.4839H18.113C15.0005 61.4839 12.469 64.0159 12.469 67.1279V144.861C12.469 146.166 11.4112 147.225 10.1057 147.225Z" fill="#2626BC"/>
<path d="M166.266 110.707C187.048 110.707 203.895 93.8598 203.895 73.0778C203.895 52.2959 187.048 35.4487 166.266 35.4487C145.484 35.4487 128.636 52.2959 128.636 73.0778C128.636 93.8598 145.484 110.707 166.266 110.707Z" fill="#02FFB3"/>
<path d="M166.266 113.07C144.214 113.07 126.274 95.1291 126.274 73.0774C126.274 51.0256 144.214 33.0854 166.266 33.0854C188.318 33.0854 206.258 51.0261 206.258 73.0774C206.258 95.1296 188.318 113.07 166.266 113.07ZM166.266 37.812C146.82 37.812 131 53.6323 131 73.0774C131 92.5229 146.821 108.343 166.266 108.343C185.712 108.343 201.532 92.5229 201.532 73.0774C201.532 53.6323 185.711 37.812 166.266 37.812Z" fill="#2626BC"/>
<path d="M185.964 92.8145C196.858 81.9203 196.858 64.2574 185.964 53.3633C175.07 42.4691 157.407 42.4691 146.512 53.3633C135.618 64.2574 135.618 81.9203 146.512 92.8145C157.407 103.709 175.07 103.709 185.964 92.8145Z" fill="#DCFDEE"/>
<path d="M160.867 85.6478C159.906 85.6478 158.983 85.2659 158.303 84.5857L150.891 77.1726C149.474 75.7565 149.474 73.4608 150.891 72.0447C152.308 70.6282 154.603 70.6286 156.019 72.0447L160.867 76.8937L176.514 61.2474C177.931 59.8313 180.226 59.8313 181.642 61.2474C183.058 62.6634 183.058 64.9591 181.642 66.3752L163.432 84.5852C162.751 85.2659 161.829 85.6478 160.867 85.6478Z" fill="#FF7EB8"/>
<path d="M70.7059 111.299H28.1763C26.8392 111.299 25.7549 110.215 25.7549 108.877C25.7549 107.54 26.8387 106.456 28.1763 106.456H70.7064C72.0435 106.456 73.1278 107.54 73.1278 108.877C73.1273 110.215 72.0435 111.299 70.7059 111.299Z" fill="#B7C5FF"/>
<path d="M94.2848 111.299H82.6684C81.3312 111.299 80.2469 110.215 80.2469 108.877C80.2469 107.54 81.3307 106.456 82.6684 106.456H94.2848C95.622 106.456 96.7063 107.54 96.7063 108.877C96.7063 110.215 95.6225 111.299 94.2848 111.299Z" fill="#FFA8CF"/>
<path d="M94.2848 120.903H28.1763C26.8392 120.903 25.7549 119.819 25.7549 118.482C25.7549 117.145 26.8387 116.061 28.1763 116.061H94.2848C95.622 116.061 96.7063 117.145 96.7063 118.482C96.7063 119.819 95.6225 120.903 94.2848 120.903Z" fill="#B7C5FF"/>
<path d="M30.8639 101.26C30.2371 101.26 29.6359 101.011 29.193 100.568L25.8948 97.2698C24.9717 96.3467 24.9717 94.8503 25.8948 93.9277C26.817 93.005 28.3144 93.005 29.2365 93.9277L30.8634 95.5545L36.6676 89.7503C37.5898 88.8277 39.0871 88.8277 40.0093 89.7503C40.9324 90.6734 40.9324 92.1698 40.0093 93.0925L32.5342 100.568C32.0918 101.011 31.4906 101.26 30.8639 101.26Z" fill="#4369FD"/>
<path d="M41.6985 149.955H28.1758C26.8387 149.955 25.7544 148.871 25.7544 147.534C25.7544 146.197 26.8382 145.112 28.1758 145.112H41.6985C43.0357 145.112 44.1199 146.197 44.1199 147.534C44.1199 148.871 43.0361 149.955 41.6985 149.955Z" fill="#B7C5FF"/>
<path d="M94.2849 149.955H53.661C52.3239 149.955 51.2396 148.871 51.2396 147.534C51.2396 146.197 52.3234 145.112 53.661 145.112H94.2849C95.6221 145.112 96.7063 146.197 96.7063 147.534C96.7063 148.871 95.6225 149.955 94.2849 149.955Z" fill="#FFA8CF"/>
<path d="M30.8638 139.916C30.2371 139.916 29.6359 139.667 29.1925 139.224L25.8943 135.926C24.9717 135.003 24.9717 133.507 25.8948 132.584C26.8169 131.661 28.3138 131.661 29.2369 132.584L30.8633 134.211L36.6676 128.407C37.5897 127.484 39.0871 127.484 40.0092 128.407C40.9323 129.33 40.9323 130.826 40.0092 131.749L32.5347 139.224C32.0918 139.667 31.4906 139.916 30.8638 139.916Z" fill="#4369FD"/>
<path d="M84.9902 36.465C84.3634 36.465 83.7622 36.2159 83.3193 35.773L78.1111 30.5653C77.6678 30.122 77.4187 29.5212 77.4187 28.894C77.4187 28.2668 77.6673 27.666 78.1111 27.2227L83.3193 22.015C83.7627 21.5716 84.3634 21.323 84.9902 21.323C85.6169 21.323 86.2181 21.5721 86.661 22.015L91.8687 27.2227C92.7918 28.1458 92.7918 29.6422 91.8687 30.5648L86.661 35.7726C86.2177 36.2159 85.6169 36.465 84.9902 36.465ZM83.1241 28.894L84.9897 30.7596L86.8548 28.894L84.9897 27.0284L83.1241 28.894Z" fill="#FF7EB8"/>
<path d="M192.22 139.691C190.914 139.691 189.856 138.632 189.856 137.327C189.856 135.759 188.58 134.483 187.011 134.483C185.706 134.483 184.648 133.425 184.648 132.12C184.648 130.815 185.706 129.756 187.011 129.756C188.58 129.756 189.856 128.48 189.856 126.912C189.856 125.607 190.914 124.549 192.22 124.549C193.525 124.549 194.583 125.607 194.583 126.912C194.583 128.48 195.859 129.756 197.427 129.756C198.733 129.756 199.791 130.815 199.791 132.12C199.791 133.425 198.733 134.483 197.427 134.483C195.859 134.483 194.583 135.759 194.583 137.327C194.583 138.632 193.525 139.691 192.22 139.691Z" fill="#6583FE"/>
<path d="M66.9024 45.0226C65.5969 45.0226 64.5391 43.9644 64.5391 42.6594C64.5391 41.0911 63.2634 39.8149 61.6947 39.8149C60.3892 39.8149 59.3314 38.7566 59.3314 37.4516C59.3314 36.1466 60.3892 35.0883 61.6947 35.0883C63.263 35.0883 64.5391 33.8122 64.5391 32.2439C64.5391 30.9389 65.5969 29.8806 66.9024 29.8806C68.2079 29.8806 69.2657 30.9389 69.2657 32.2439C69.2657 33.8122 70.5414 35.0883 72.1102 35.0883C73.4156 35.0883 74.4734 36.1466 74.4734 37.4516C74.4734 38.7566 73.4156 39.8149 72.1102 39.8149C70.5419 39.8149 69.2657 41.0911 69.2657 42.6594C69.2657 43.9644 68.2079 45.0226 66.9024 45.0226Z" fill="#97FFD2"/>
<path d="M162.508 201.165C161.203 201.165 160.145 200.107 160.145 198.802C160.145 197.233 158.869 195.957 157.3 195.957C155.995 195.957 154.937 194.899 154.937 193.594C154.937 192.289 155.995 191.231 157.3 191.231C158.869 191.231 160.145 189.955 160.145 188.386C160.145 187.081 161.203 186.023 162.508 186.023C163.814 186.023 164.872 187.081 164.872 188.386C164.872 189.955 166.147 191.231 167.716 191.231C169.022 191.231 170.079 192.289 170.079 193.594C170.079 194.899 169.022 195.957 167.716 195.957C166.148 195.957 164.872 197.233 164.872 198.802C164.872 200.107 163.814 201.165 162.508 201.165Z" fill="#FF7EB8"/>
<path d="M140.577 140.513C142.037 140.513 143.22 139.33 143.22 137.87C143.22 136.411 142.037 135.228 140.577 135.228C139.118 135.228 137.935 136.411 137.935 137.87C137.935 139.33 139.118 140.513 140.577 140.513Z" fill="white"/>
<path d="M132.585 140.513C134.044 140.513 135.227 139.33 135.227 137.87C135.227 136.411 134.044 135.228 132.585 135.228C131.126 135.228 129.943 136.411 129.943 137.87C129.943 139.33 131.126 140.513 132.585 140.513Z" fill="white"/>
<path d="M124.592 140.513C126.052 140.513 127.234 139.33 127.234 137.871C127.234 136.412 126.052 135.229 124.592 135.229C123.133 135.229 121.95 136.412 121.95 137.871C121.95 139.33 123.133 140.513 124.592 140.513Z" fill="white"/>
</g>
</g>
<defs>
<linearGradient id="paint0_linear" x1="-8.37041" y1="50.5144" x2="229.367" y2="187.358" gradientUnits="userSpaceOnUse">
<stop offset="0.0485" stop-color="#D2DEFF"/>
<stop offset="0.9993" stop-color="#DCFDEE"/>
</linearGradient>
<clipPath id="clip0">
<rect width="228" height="234" fill="white"/>
</clipPath>
<clipPath id="clip1">
<rect width="242" height="242" fill="white" transform="translate(-14 -4)"/>
</clipPath>
</defs>
</svg>
